SplineFontDB: 3.2
FontName: wwise-regular
FullName: wwise Sans
FamilyName: wwise
Weight: Regular
Copyright: Copyright (c) 2022, willi
UComments: "Glyphs are created in Figma (https://figma.com/). This font was generated by FontForge (https://fontforge.org)."
Version: 001.000
DefaultBaseFilename: 400-regular
ItalicAngle: 0
UnderlinePosition: -204
UnderlineWidth: 102
Ascent: 1638
Descent: 410
InvalidEm: 0
LayerCount: 2
Layer: 0 0 "Back" 1
Layer: 1 0 "Fore" 0
XUID: [1021 86 -766541239 4208]
StyleMap: 0x0040
FSType: 0
OS2Version: 0
OS2_WeightWidthSlopeOnly: 0
OS2_UseTypoMetrics: 1
CreationTime: 1671043445
ModificationTime: 1671141309
PfmFamily: 33
TTFWeight: 400
TTFWidth: 5
LineGap: 184
VLineGap: 0
OS2TypoAscent: 0
OS2TypoAOffset: 1
OS2TypoDescent: 0
OS2TypoDOffset: 1
OS2TypoLinegap: 184
OS2WinAscent: 0
OS2WinAOffset: 1
OS2WinDescent: 0
OS2WinDOffset: 1
HheadAscent: 0
HheadAOffset: 1
HheadDescent: 0
HheadDOffset: 1
OS2Vendor: 'PfEd'
Lookup: 258 0 0 "'kern' Horizontal Kerning in Latin lookup 0" { "r-" [300,0,2] "-.,_" [300,0,2] "-'+ACIA" [300,0,2] "'+ACIA--" [300,0,2] "-VW" [300,0,2] "VW-" [300,0,2] "-vwy" [300,0,2] "vwy-" [300,0,2] "-x" [300,0,2] "kx-" [300,0,2] "ft-" [300,0,2] "TY-" [300,0,2] } ['kern' ('DFLT' <'dflt' > 'latn' <'dflt' > ) ]
MarkAttachClasses: 1
DEI: 91125
KernClass2: 2 3 "r-"
 1 r
 1 a
 11 c d e g o q
 0 {} 0 {} 0 {} 0 {} -128 {} -206 {}
KernClass2: 10 4 "-.,_"
 3 b o
 1 c
 1 e
 1 f
 1 p
 1 r
 1 s
 3 v w
 1 y
 5 comma
 6 period
 10 underscore
 0 {} 0 {} 0 {} 0 {} 0 {} -190 {} -92 {} -322 {} 0 {} -101 {} 0 {} -186 {} 0 {} -128 {} -25 {} -302 {} 0 {} -310 {} -209 {} 0 {} 0 {} -246 {} -92 {} -587 {} 0 {} -400 {} -350 {} -300 {} 0 {} -103 {} 0 {} -236 {} 0 {} -369 {} -276 {} -300 {} 0 {} -391 {} -282 {} -351 {}
KernClass2: 4 3 "-'+ACIA"
 33 a c e g m n o p q r s u v w x y z
 1 b
 1 h
 26 quotedblright quotedblleft
 32 quotesingle quoteleft quoteright
 0 {} 0 {} 0 {} 0 {} -300 {} -100 {} 0 {} -300 {} -100 {} 0 {} -300 {} -100 {}
KernClass2: 3 3 "'+ACIA--"

StartChar: A
Encoding: 65 65 0
Width: 1571
VWidth: 2457
Flags: HW
HStem: -0.480469 21G<111 291.032 1282.65 1462.68> 491.04 147.456<538.622 1035.06> 1454.08 20G<692.823 880.855>
LayerCount: 2
Fore
SplineSet
700.823242188 1474.08007812 m 1
 872.85546875 1474.08007812 l 1
 1462.68066406 -0.48046875 l 1
 1290.6484375 -0.48046875 l 1
 1094.04003906 491.040039062 l 1
 479.640625 491.040039062 l 1
 283.032226562 -0.48046875 l 1
 111 -0.48046875 l 1
 700.823242188 1474.08007812 l 1
786.83984375 1259.04003906 m 1
 538.622070312 638.49609375 l 1
 1035.05761719 638.49609375 l 1
 786.83984375 1259.04003906 l 1
EndSplineSet
EndChar

StartChar: B
Encoding: 66 66 1
Width: 1305
VWidth: 2457
Flags: HW
HStem: -0.480469 147.457<322.033 892.505> 663.071 147.457<322.033 831.309> 1326.62 147.457<322.033 820.488>
VStem: 150 172.033<146.977 663.071 810.528 1326.62> 936.433 172.031<911.37 1216.57> 1010.16 172.032<257.202 558.609>
LayerCount: 2
Fore
SplineSet
150 1474.08007812 m 1xf4
 322.033203125 1474.08007812 l 1
 322.033203125 1474.08007812 444.912109375 1474.08007812 690.671875 1474.08007812 c 0
 936.432617188 1474.08007812 1108.46386719 1302.04785156 1108.46386719 1056.28808594 c 0xf8
 1108.46386719 810.528320312 936.432617188 736.799804688 838.12890625 736.799804688 c 1
 862.704101562 736.799804688 l 2
 961.0078125 736.799804688 1182.19238281 687.6484375 1182.19238281 417.311523438 c 0
 1182.19238281 146.9765625 985.584960938 -0.48046875 739.82421875 -0.48046875 c 2
 322.033203125 -0.48046875 l 1
 150 -0.48046875 l 1
 150 1474.08007812 l 1xf4
322.033203125 810.528320312 m 1
 322.033203125 810.528320312 616.944335938 810.528320312 690.671875 810.528320312 c 0
 764.400390625 810.528320312 936.432617188 859.680664062 936.432617188 1056.28808594 c 0
 936.432617188 1252.89648438 788.9765625 1326.62304688 690.671875 1326.62304688 c 0
 592.368164062 1326.62304688 322.033203125 1326.62304688 322.033203125 1326.62304688 c 1
 322.033203125 810.528320312 l 1
690.671875 663.071289062 m 0
 592.368164062 663.071289062 322.033203125 663.071289062 322.033203125 663.071289062 c 1
 322.033203125 146.9765625 l 1
 322.033203125 146.9765625 641.51953125 146.9765625 739.82421875 146.9765625 c 0
 838.12890625 146.9765625 1010.16015625 196.12890625 1010.16015625 417.311523438 c 0xf4
 1010.16015625 638.49609375 788.9765625 663.071289062 690.671875 663.071289062 c 0
EndSplineSet
EndChar

StartChar: C
Encoding: 67 67 2
Width: 1309
VWidth: 2457
Flags: HW
HStem: -25.0557 147.456<584.458 946.228> 1351.2 147.456<584.458 946.228>
VStem: 117 172.032<496.792 976.809>
LayerCount: 2
Fore
SplineSet
117 736.799804688 m 0
 117 1056.28808594 313.607421875 1498.65625 755.9765625 1498.65625 c 0
 948.745117188 1498.65625 1094.84375 1394.74316406 1198.34375 1278.78417969 c 2
 1124.61523438 1154.59179688 l 1
 1026.31152344 1277.47167969 916.368164062 1351.20019531 755.9765625 1351.20019531 c 0
 411.911132812 1351.20019531 289.032226562 933.408203125 289.032226562 736.799804688 c 0
 289.032226562 540.192382812 411.911132812 122.400390625 755.9765625 122.400390625 c 0
 916.368164062 122.400390625 1026.31152344 196.12890625 1124.61523438 319.0078125 c 1
 1198.34375 194.81640625 l 2
 1094.84375 78.8564453125 948.745117188 -25.0556640625 755.9765625 -25.0556640625 c 0
 313.607421875 -25.0556640625 117 417.311523438 117 736.799804688 c 0
EndSplineSet
EndChar

StartChar: D
Encoding: 68 68 3
Width: 1410
VWidth: 2457
Flags: HW
HStem: -0.480469 147.457<322.033 821.925> 1326.62 147.457<322.033 821.925>
VStem: 150 172.033<146.977 1326.62> 1108.46 172.032<479.895 993.705>
LayerCount: 2
Fore
SplineSet
150 1474.08007812 m 1
 690.671875 1474.08007812 l 2
 1010.16015625 1474.08007812 1280.49609375 1105.44042969 1280.49609375 736.799804688 c 0
 1280.49609375 368.16015625 1010.16015625 -0.48046875 690.671875 -0.48046875 c 2
 150 -0.48046875 l 1
 150 1474.08007812 l 1
322.033203125 146.9765625 m 1
 690.671875 146.9765625 l 2
 788.9765625 146.9765625 1108.46386719 269.85546875 1108.46386719 736.799804688 c 0
 1108.46386719 1203.74414062 788.9765625 1326.62304688 690.671875 1326.62304688 c 2
 322.033203125 1326.62304688 l 1
 322.033203125 146.9765625 l 1
EndSplineSet
EndChar

StartChar: E
Encoding: 69 69 4
Width: 1249
VWidth: 2457
Flags: HW
HStem: -0.480469 147.457<322.033 1133.04> 663.071 147.457<322.033 985.585> 1326.62 147.457<322.033 1083.89>
VStem: 150 172.033<146.977 663.071 810.528 1326.62>
LayerCount: 2
Fore
SplineSet
150 -0.48046875 m 1
 150 1474.08007812 l 1
 1083.88867188 1474.08007812 l 1
 1083.88867188 1326.62304688 l 1
 322.033203125 1326.62304688 l 1
 322.033203125 810.528320312 l 1
 1034.73632812 810.528320312 l 1
 985.584960938 663.071289062 l 1
 322.033203125 663.071289062 l 1
 322.033203125 146.9765625 l 1
 1133.04101562 146.9765625 l 1
 1133.04101562 -0.48046875 l 1
 150 -0.48046875 l 1
EndSplineSet
EndChar

StartChar: F
Encoding: 70 70 5
Width: 1194
VWidth: 2457
Flags: HW
HStem: -0.480469 21G<150 322.033> 663.071 147.457<322.033 985.585> 1326.62 147.457<322.033 1083.89>
VStem: 150 172.033<-0.480469 663.071 810.528 1326.62>
LayerCount: 2
Fore
SplineSet
150 -0.48046875 m 1
 150 1474.08007812 l 1
 1083.88867188 1474.08007812 l 1
 1083.88867188 1326.62304688 l 1
 322.033203125 1326.62304688 l 1
 322.033203125 810.528320312 l 1
 1034.73632812 810.528320312 l 1
 985.584960938 663.071289062 l 1
 322.033203125 663.071289062 l 1
 322.033203125 -0.48046875 l 1
 150 -0.48046875 l 1
EndSplineSet
EndChar

StartChar: G
Encoding: 71 71 6
Width: 1427
VWidth: 2457
Flags: HW
HStem: -25.0557 147.456<597.846 987.543> 663.071 147.457<806.129 1125.62> 1351.2 147.456<597.846 1009.28>
VStem: 118 172.032<475.742 997.858> 1125.62 172.032<245.28 663.071>
LayerCount: 2
Fore
SplineSet
118 736.799804688 m 0
 118 1105.44042969 314.608398438 1498.65625 806.12890625 1498.65625 c 0
 998.897460938 1498.65625 1169.57324219 1394.74316406 1273.07128906 1278.78417969 c 2
 1199.34472656 1154.59179688 l 1
 1101.04003906 1277.47167969 966.520507812 1351.20019531 806.12890625 1351.20019531 c 0
 412.912109375 1351.20019531 290.032226562 982.559570312 290.032226562 736.799804688 c 0
 290.032226562 491.040039062 412.912109375 122.400390625 806.12890625 122.400390625 c 0
 966.520507812 122.400390625 1125.61621094 245.280273438 1125.61621094 245.280273438 c 1
 1125.61621094 663.071289062 l 1
 756.9765625 663.071289062 l 1
 806.12890625 810.528320312 l 1
 1297.6484375 810.528320312 l 1
 1297.6484375 171.551757812 l 2
 1194.14941406 55.587890625 998.897460938 -25.0556640625 806.12890625 -25.0556640625 c 0
 314.608398438 -25.0556640625 118 368.16015625 118 736.799804688 c 0
EndSplineSet
EndChar

StartChar: H
Encoding: 72 72 7
Width: 1379
VWidth: 2457
Flags: HW
HStem: -0.480469 21G<150 322.033 1059.31 1231.34> 663.071 147.457<322.033 1059.31> 1454.08 20G<150 322.033 1059.31 1231.34>
VStem: 150 172.033<-0.480469 663.071 810.528 1474.08> 1059.31 172.032<-0.480469 663.071 810.528 1474.08>
LayerCount: 2
Fore
SplineSet
150 -0.48046875 m 1
 150 1474.08007812 l 1
 322.033203125 1474.08007812 l 1
 322.033203125 810.528320312 l 1
 1059.3125 810.528320312 l 1
 1059.3125 1474.08007812 l 1
 1231.34472656 1474.08007812 l 1
 1231.34472656 -0.48046875 l 1
 1059.3125 -0.48046875 l 1
 1059.3125 663.071289062 l 1
 322.033203125 663.071289062 l 1
 322.033203125 -0.48046875 l 1
 150 -0.48046875 l 1
EndSplineSet
EndChar

StartChar: I
Encoding: 73 73 8
Width: 1008
VWidth: 2457
Flags: W
HStem: -0.480469 147.457<126 420.912 592.944 887.855> 1326.62 147.457<126 420.912 592.944 838.704>
VStem: 420.912 172.032<146.977 1326.62>
LayerCount: 2
Fore
SplineSet
887.85546875 146.9765625 m 1
 887.85546875 -0.48046875 l 1
 126 -0.48046875 l 1
 126 146.9765625 l 1
 420.912109375 146.9765625 l 1
 420.912109375 1326.62304688 l 1
 126 1326.62304688 l 1
 126 1474.08007812 l 1
 887.85546875 1474.08007812 l 1
 838.704101562 1326.62304688 l 1
 592.944335938 1326.62304688 l 1
 592.944335938 146.9765625 l 1
 887.85546875 146.9765625 l 1
EndSplineSet
EndChar

StartChar: J
Encoding: 74 74 9
Width: 1008
VWidth: 2457
Flags: HW
HStem: -0.480469 147.457<126 420.912 592.944 887.855> 1326.62 147.457<126 420.912 592.944 838.704>
VStem: 420.912 172.032<146.977 1326.62>
LayerCount: 2
Fore
SplineSet
887.85546875 146.9765625 m 1
 887.85546875 -0.48046875 l 1
 126 -0.48046875 l 1
 126 146.9765625 l 1
 420.912109375 146.9765625 l 1
 420.912109375 1326.62304688 l 1
 126 1326.62304688 l 1
 126 1474.08007812 l 1
 887.85546875 1474.08007812 l 1
 838.704101562 1326.62304688 l 1
 592.944335938 1326.62304688 l 1
 592.944335938 146.9765625 l 1
 887.85546875 146.9765625 l 1
EndSplineSet
EndChar

StartChar: K
Encoding: 75 75 10
Width: 1483
VWidth: 2457
Flags: HW
HStem: -0.480469 21G<150 322.033 1139.04 1378.8> 1454.08 20G<150 322.033 1087.82 1329.65>
VStem: 150 172.033<-0.480469 491.04 712.224 1474.08>
LayerCount: 2
Fore
SplineSet
150 -0.48046875 m 1
 150 1474.08007812 l 1
 322.033203125 1474.08007812 l 1
 322.033203125 712.223632812 l 1
 518.640625 902.688476562 l 1
 518.640625 908.83203125 l 1
 521.673828125 905.626953125 l 1
 1108.46386719 1474.08007812 l 1
 1329.6484375 1474.08007812 l 1
 629.809570312 791.309570312 l 1
 1378.80078125 -0.48046875 l 1
 1157.61621094 -0.48046875 l 1
 520.9765625 685.130859375 l 1
 322.033203125 491.040039062 l 1
 322.033203125 -0.48046875 l 1
 150 -0.48046875 l 1
EndSplineSet
EndChar

StartChar: L
Encoding: 76 76 11
Width: 1247
VWidth: 2457
Flags: HW
HStem: -0.480469 147.457<322.033 1133.04> 1454.08 20G<150 322.033>
VStem: 150 172.033<146.977 1474.08>
LayerCount: 2
Fore
SplineSet
150 -0.48046875 m 1
 150 1474.08007812 l 1
 322.033203125 1474.08007812 l 1
 322.033203125 146.9765625 l 1
 1133.04101562 146.9765625 l 1
 1133.04101562 -0.48046875 l 1
 150 -0.48046875 l 1
EndSplineSet
EndChar

StartChar: M
Encoding: 77 77 12
Width: 1773
VWidth: 2457
Flags: HW
HStem: -0.480469 21G<150 322.033 1452.53 1624.56> 1454.08 20G<150 309.764 1464.8 1624.56>
VStem: 150 172.033<-0.480469 1154.59> 1452.53 172.031<-0.480469 1154.59>
LayerCount: 2
Fore
SplineSet
150 1474.08007812 m 1
 297.456054688 1474.08007812 l 1
 887.28125 515.615234375 l 1
 1477.10449219 1474.08007812 l 1
 1624.56054688 1474.08007812 l 1
 1624.56054688 -0.48046875 l 1
 1452.52929688 -0.48046875 l 1
 1452.52929688 1154.59179688 l 1
 961.0078125 368.16015625 l 1
 813.552734375 368.16015625 l 1
 322.033203125 1154.59179688 l 1
 322.033203125 -0.48046875 l 1
 150 -0.48046875 l 1
 150 1474.08007812 l 1
EndSplineSet
EndChar

StartChar: N
Encoding: 78 78 13
Width: 1527
VWidth: 2457
Flags: HW
HStem: -0.480469 21G<150 322.033 1215.93 1378.8> 1454.08 20G<150 312.873 1206.77 1378.8>
VStem: 150 172.033<-0.480469 1179.17> 1206.77 172.033<294.433 1474.08>
LayerCount: 2
Fore
SplineSet
150 -0.48046875 m 5
 150 1474.08007812 l 5
 297.456054688 1474.08007812 l 5
 1206.76757812 294.432617188 l 5
 1206.76757812 1474.08007812 l 5
 1378.80078125 1474.08007812 l 5
 1378.80078125 -0.48046875 l 5
 1231.34472656 -0.48046875 l 5
 322.033203125 1179.16796875 l 5
 322.033203125 -0.48046875 l 5
 150 -0.48046875 l 5
EndSplineSet
EndChar

StartChar: O
Encoding: 79 79 14
Width: 1525
VWidth: 2457
Flags: W
HStem: -25.0557 147.456<584.458 927.495> 1351.2 147.456<584.458 927.495>
VStem: 117 172.032<496.792 976.809> 1222.92 172.032<496.792 976.809>
LayerCount: 2
Fore
SplineSet
117 736.799804688 m 0
 117 1056.28808594 313.607421875 1498.65625 755.9765625 1498.65625 c 0
 1198.34375 1498.65625 1394.95117188 1056.28808594 1394.95117188 736.799804688 c 0
 1394.95117188 417.311523438 1198.34375 -25.0556640625 755.9765625 -25.0556640625 c 0
 313.607421875 -25.0556640625 117 417.311523438 117 736.799804688 c 0
755.9765625 1351.20019531 m 0
 411.911132812 1351.20019531 289.032226562 933.408203125 289.032226562 736.799804688 c 0
 289.032226562 540.192382812 411.911132812 122.400390625 755.9765625 122.400390625 c 0
 1100.04003906 122.400390625 1222.91894531 540.192382812 1222.91894531 736.799804688 c 0
 1222.91894531 933.408203125 1100.04003906 1351.20019531 755.9765625 1351.20019531 c 0
EndSplineSet
EndChar

StartChar: P
Encoding: 80 80 15
Width: 1228
VWidth: 2457
Flags: HW
HStem: -0.480469 21G<150 322.033> 663.071 147.457<322.033 829.798> 1326.62 147.457<322.033 820.488>
VStem: 150 172.033<-0.480469 663.071 810.528 1326.62> 936.433 172.031<910.901 1216.57>
LayerCount: 2
Fore
SplineSet
150 -0.48046875 m 1
 150 1474.08007812 l 1
 322.033203125 1474.08007812 l 1
 690.671875 1474.08007812 l 2
 936.432617188 1474.08007812 1108.46386719 1302.04785156 1108.46386719 1056.28808594 c 0
 1108.46386719 810.528320312 887.28125 663.071289062 690.671875 663.071289062 c 2
 322.033203125 663.071289062 l 1
 322.033203125 146.9765625 l 1
 322.033203125 -0.48046875 l 1
 150 -0.48046875 l 1
690.671875 810.528320312 m 2
 764.400390625 810.528320312 936.432617188 859.680664062 936.432617188 1056.28808594 c 0
 936.432617188 1252.89648438 788.9765625 1326.62304688 690.671875 1326.62304688 c 2
 322.033203125 1326.62304688 l 1
 322.033203125 810.528320312 l 1
 690.671875 810.528320312 l 2
EndSplineSet
EndChar

StartChar: Q
Encoding: 81 81 16
Width: 1552
VWidth: 2457
Flags: HW
HStem: -147.937 147.456<1158.96 1394.95> -25.0557 147.456<584.458 931.022> 1351.2 147.456<584.458 927.495>
VStem: 117 172.032<496.792 976.809> 1222.92 172.032<492.717 976.809>
LayerCount: 2
Fore
SplineSet
755.9765625 1498.65625 m 0x78
 1198.34375 1498.65625 1394.95117188 1056.28808594 1394.95117188 736.799804688 c 0
 1394.95117188 521.459960938 1305.6328125 250.2890625 1111.93945312 96.384765625 c 0
 1143.96679688 31.80859375 1232.234375 -0.48046875 1272.07128906 -0.48046875 c 2
 1444.10351562 -0.48046875 l 1
 1394.95117188 -147.936523438 l 1
 1272.07128906 -147.936523438 l 2xb8
 1128.77929688 -147.936523438 1016.43261719 -75.7373046875 955.075195312 8.5302734375 c 0
 895.248046875 -13.013671875 828.95703125 -25.0556640625 755.9765625 -25.0556640625 c 0
 313.607421875 -25.0556640625 117 417.311523438 117 736.799804688 c 0
 117 1056.28808594 313.607421875 1498.65625 755.9765625 1498.65625 c 0x78
289.032226562 736.799804688 m 0
 289.032226562 540.192382812 411.911132812 122.400390625 755.9765625 122.400390625 c 0x78
 1100.04003906 122.400390625 1222.91894531 540.192382812 1222.91894531 736.799804688 c 0
 1222.91894531 933.408203125 1100.04003906 1351.20019531 755.9765625 1351.20019531 c 0
 411.911132812 1351.20019531 289.032226562 933.408203125 289.032226562 736.799804688 c 0
EndSplineSet
EndChar

StartChar: R
Encoding: 82 82 17
Width: 1268
VWidth: 2457
Flags: HW
HStem: -0.480469 21G<150 322.033 947.674 1157.62> 663.071 147.457<322.033 518.641> 1326.62 147.457<322.033 820.488>
VStem: 150 172.033<-0.480469 663.071 810.528 1326.62> 936.433 172.031<914.404 1216.57>
LayerCount: 2
Fore
SplineSet
150 1474.08007812 m 1
 322.033203125 1474.08007812 l 1
 690.671875 1474.08007812 l 2
 936.432617188 1474.08007812 1108.46386719 1302.04785156 1108.46386719 1056.28808594 c 0
 1108.46386719 823.5390625 910.077148438 678.95703125 722.065429688 664.305664062 c 1
 1157.61621094 -0.48046875 l 1
 961.0078125 -0.48046875 l 1
 518.640625 663.071289062 l 1
 322.033203125 663.071289062 l 1
 322.033203125 146.9765625 l 1
 322.033203125 -0.48046875 l 1
 150 -0.48046875 l 1
 150 1474.08007812 l 1
322.033203125 810.528320312 m 1
 690.671875 810.528320312 l 2
 764.400390625 810.528320312 936.432617188 859.680664062 936.432617188 1056.28808594 c 0
 936.432617188 1252.89648438 788.9765625 1326.62304688 690.671875 1326.62304688 c 2
 322.033203125 1326.62304688 l 1
 322.033203125 810.528320312 l 1
EndSplineSet
EndChar

StartChar: S
Encoding: 83 83 18
Width: 1354
VWidth: 2457
Flags: HW
HStem: -25.0557 147.456<466.396 928.635> 1351.2 147.456<476.496 866.545>
VStem: 151.152 172.032<947.048 1217.79> 1060.46 172.032<234.922 517.2>
LayerCount: 2
Fore
SplineSet
151.15234375 1080.86328125 m 0
 151.15234375 1182.55859375 196.208007812 1498.65625 667.248046875 1498.65625 c 0
 1033.35742188 1498.65625 1183.34472656 1277.47167969 1183.34472656 1277.47167969 c 1
 1085.04003906 1130.015625 l 1
 1085.04003906 1130.015625 945.163085938 1351.20019531 667.248046875 1351.20019531 c 0
 513.088867188 1351.20019531 323.184570312 1269.68066406 323.184570312 1080.86328125 c 0
 323.184570312 892.046875 509.283203125 837.232421875 667.248046875 810.528320312 c 0
 825.213867188 783.82421875 1232.49609375 748.665039062 1232.49609375 392.736328125 c 0
 1232.49609375 174.58984375 1138.28710938 -25.0556640625 667.248046875 -25.0556640625 c 0
 307.544921875 -25.0556640625 102 196.12890625 102 196.12890625 c 1
 200.303710938 343.583984375 l 1
 200.303710938 343.583984375 410.317382812 122.400390625 667.248046875 122.400390625 c 0
 902.76953125 122.400390625 1060.46386719 176.948242188 1060.46386719 392.736328125 c 0
 1060.46386719 608.5234375 791.907226562 638.928710938 667.248046875 663.071289062 c 0
 542.588867188 687.215820312 151.15234375 724.934570312 151.15234375 1080.86328125 c 0
EndSplineSet
EndChar

StartChar: T
Encoding: 84 84 19
Width: 1258
VWidth: 2457
Flags: W
HStem: -0.480469 21G<539.367 711.4> 1326.62 147.457<97 539.367 711.4 1104.62>
VStem: 539.367 172.033<-0.480469 1326.62>
LayerCount: 2
Fore
SplineSet
711.400390625 1326.62304688 m 5
 711.400390625 -0.48046875 l 5
 539.3671875 -0.48046875 l 5
 539.3671875 1326.62304688 l 5
 97 1326.62304688 l 5
 97 1474.08007812 l 5
 1153.76757812 1474.08007812 l 5
 1104.61523438 1326.62304688 l 5
 711.400390625 1326.62304688 l 5
EndSplineSet
EndChar

StartChar: U
Encoding: 85 85 20
Width: 1414
VWidth: 2457
Flags: HW
HStem: -25.0557 147.456<519.26 889.236> 1454.08 20G<139 311.032 1097.46 1269.5>
VStem: 139 172.032<342.913 1474.08> 1097.46 172.032<342.913 1474.08>
LayerCount: 2
Fore
SplineSet
139 540.192382812 m 2
 139 1474.08007812 l 1
 311.032226562 1474.08007812 l 1
 311.032226562 540.192382812 l 2
 311.032226562 368.16015625 409.336914062 122.400390625 704.248046875 122.400390625 c 0
 999.16015625 122.400390625 1097.46386719 368.16015625 1097.46386719 540.192382812 c 2
 1097.46386719 1474.08007812 l 1
 1269.49609375 1474.08007812 l 1
 1269.49609375 540.192382812 l 2
 1269.49609375 220.704101562 1023.73632812 -25.0556640625 704.248046875 -25.0556640625 c 0
 384.759765625 -25.0556640625 139 220.704101562 139 540.192382812 c 2
EndSplineSet
EndChar

StartChar: V
Encoding: 86 86 21
Width: 1461
VWidth: 2457
Flags: W
HStem: -0.480469 21G<626.338 825.326> 1454.08 20G<93 284.653 1167.01 1358.66>
LayerCount: 2
Fore
SplineSet
277.319335938 1474.08007812 m 1
 725.83203125 250.86328125 l 1
 1174.34375 1474.08007812 l 1
 1358.66308594 1474.08007812 l 1
 817.9921875 -0.48046875 l 1
 633.670898438 -0.48046875 l 1
 93 1474.08007812 l 1
 277.319335938 1474.08007812 l 1
EndSplineSet
EndChar

StartChar: W
Encoding: 87 87 22
Width: 2063
VWidth: 2457
Flags: W
HStem: -0.480469 21G<577.853 774.84 1278.94 1475.92> 1454.08 20G<93 283.849 1769.93 1960.78>
LayerCount: 2
Fore
SplineSet
277.319335938 1474.08007812 m 1
 676.680664062 250.86328125 l 1
 928.583984375 1105.44042969 l 1
 1125.19238281 1105.44042969 l 1
 1377.09570312 250.86328125 l 1
 1776.45605469 1474.08007812 l 1
 1960.77636719 1474.08007812 l 1
 1469.25585938 -0.48046875 l 1
 1284.93652344 -0.48046875 l 1
 1026.88769531 859.680664062 l 1
 768.83984375 -0.48046875 l 1
 584.51953125 -0.48046875 l 1
 93 1474.08007812 l 1
 277.319335938 1474.08007812 l 1
EndSplineSet
EndChar

StartChar: X
Encoding: 88 88 23
Width: 1304
VWidth: 2457
Flags: HW
HStem: -0.480469 21G<119 315.319 991.736 1188.06> 1454.08 20G<119 315.319 991.736 1188.06>
LayerCount: 2
Fore
SplineSet
303.319335938 1474.08007812 m 1
 653.528320312 890.400390625 l 1
 1003.73632812 1474.08007812 l 1
 1188.05566406 1474.08007812 l 1
 745.688476562 736.799804688 l 1
 1188.05566406 -0.48046875 l 1
 1003.73632812 -0.48046875 l 1
 653.528320312 583.200195312 l 1
 303.319335938 -0.48046875 l 1
 119 -0.48046875 l 1
 561.3671875 736.799804688 l 1
 119 1474.08007812 l 1
 303.319335938 1474.08007812 l 1
EndSplineSet
EndChar

StartChar: Y
Encoding: 89 89 24
Width: 1245
VWidth: 2457
Flags: W
HStem: -0.480469 21G<532.367 704.399> 1454.08 20G<90 285.145 963.524 1146.77>
VStem: 532.367 172.032<-0.480469 687.648>
LayerCount: 2
Fore
SplineSet
90 1474.08007812 m 1
 274.319335938 1474.08007812 l 1
 618.383789062 838.45703125 l 1
 974.736328125 1474.08007812 l 1
 1146.76757812 1474.08007812 l 1
 704.399414062 687.6484375 l 1
 704.399414062 -0.48046875 l 1
 532.3671875 -0.48046875 l 1
 532.3671875 687.6484375 l 1
 90 1474.08007812 l 1
EndSplineSet
EndChar

StartChar: Z
Encoding: 90 90 25
Width: 1234
VWidth: 2457
Flags: HW
HStem: -0.480469 172.032<350.185 1112.04> 1302.05 172.032<129 890.855>
LayerCount: 2
Fore
SplineSet
129 1302.04785156 m 1
 129 1474.08007812 l 1
 1112.04003906 1474.08007812 l 1
 1112.04003906 1351.20019531 l 1
 350.184570312 171.551757812 l 1
 1112.04003906 171.551757812 l 1
 1112.04003906 -0.48046875 l 1
 129 -0.48046875 l 1
 129 122.400390625 l 1
 890.85546875 1302.04785156 l 1
 129 1302.04785156 l 1
EndSplineSet
EndChar

StartChar: a
Encoding: 97 97 26
Width: 1085
VWidth: 2457
Flags: W
HStem: -0.480469 147.457<336.911 632.569> 466.464 147.456<366.406 773.552> 908.832 147.456<376.296 678.46>
VStem: 110 172.032<201.32 390.264> 773.552 172.032<268.663 466.464 613.92 812.688> 822.704 122.88<-0.480469 56.8606>
LayerCount: 2
Fore
SplineSet
822.704101562 -0.48046875 m 5xf4
 783.981445312 154.40234375 l 5
 692.1171875 66.19921875 576.284179688 -0.48046875 478.640625 -0.48046875 c 4
 282.032226562 -0.48046875 110 146.9765625 110 319.0078125 c 4
 110 491.040039062 282.032226562 613.919921875 503.215820312 613.919921875 c 6
 773.551757812 613.919921875 l 5
 773.551757812 687.6484375 l 6
 773.551757812 810.528320312 675.248046875 908.83203125 527.791992188 908.83203125 c 4
 380.3359375 908.83203125 282.032226562 785.952148438 282.032226562 785.952148438 c 5
 159.15234375 859.680664062 l 5
 159.15234375 859.680664062 306.607421875 1056.28808594 527.791992188 1056.28808594 c 4
 748.9765625 1056.28808594 945.583984375 908.83203125 945.583984375 687.6484375 c 6
 945.583984375 613.919921875 l 5
 945.583984375 441.888671875 l 5xf8
 945.583984375 -0.48046875 l 5
 822.704101562 -0.48046875 l 5xf4
773.551757812 368.16015625 m 6
 773.551757812 466.463867188 l 5
 503.215820312 466.463867188 l 6
 404.912109375 466.463867188 282.032226562 392.736328125 282.032226562 294.432617188 c 4
 282.032226562 196.12890625 380.3359375 146.9765625 503.215820312 146.9765625 c 4
 626.095703125 146.9765625 773.551757812 269.85546875 773.551757812 368.16015625 c 6
EndSplineSet
EndChar

StartChar: b
Encoding: 98 98 27
Width: 1207
VWidth: 2457
Flags: W
HStem: -25.0557 147.456<478.421 756.552> -0.480469 21G<150 277.881> 908.832 147.456<477.26 756.552> 1454.08 20G<150 322.033>
VStem: 150 172.033<301.899 729.332 859.424 1474.08> 150 122.881<-0.480469 56.8645> 911.856 172.032<303.579 727.653>
LayerCount: 2
Fore
SplineSet
272.880859375 -0.48046875 m 1x76
 150 -0.48046875 l 1x76
 150 1474.08007812 l 1
 322.033203125 1474.08007812 l 1
 322.033203125 859.423828125 l 1
 368.619140625 976.111328125 456.337890625 1056.28808594 616.944335938 1056.28808594 c 0
 911.856445312 1056.28808594 1083.88867188 785.952148438 1083.88867188 515.615234375 c 0
 1083.88867188 245.280273438 911.856445312 -25.0556640625 616.944335938 -25.0556640625 c 0xba
 451.9921875 -25.0556640625 363.92578125 59.5146484375 318.33984375 181.358398438 c 1
 272.880859375 -0.48046875 l 1x76
322.033203125 515.615234375 m 0xba
 322.033203125 294.432617188 444.912109375 122.400390625 616.944335938 122.400390625 c 0
 788.9765625 122.400390625 911.856445312 294.432617188 911.856445312 515.615234375 c 0
 911.856445312 736.799804688 788.9765625 908.83203125 616.944335938 908.83203125 c 0
 444.912109375 908.83203125 322.033203125 736.799804688 322.033203125 515.615234375 c 0xba
EndSplineSet
EndChar

StartChar: c
Encoding: 99 99 28
Width: 1021
VWidth: 2457
Flags: W
HStem: -25.0557 147.456<437.337 730.969> 908.832 147.456<437.337 730.969>
VStem: 110 172.032<303.579 727.653>
LayerCount: 2
Fore
SplineSet
576.944335938 1056.28808594 m 0
 709.9296875 1056.28808594 817.92578125 981.739257812 896.432617188 902.079101562 c 2
 822.704101562 785.952148438 l 1
 770.116210938 857.857421875 668.150390625 908.83203125 576.944335938 908.83203125 c 0
 404.912109375 908.83203125 282.032226562 736.799804688 282.032226562 515.615234375 c 0
 282.032226562 294.432617188 404.912109375 122.400390625 576.944335938 122.400390625 c 0
 668.150390625 122.400390625 770.116210938 173.375 822.704101562 245.280273438 c 1
 896.432617188 129.153320312 l 2
 817.92578125 49.4931640625 709.9296875 -25.0556640625 576.944335938 -25.0556640625 c 0
 282.032226562 -25.0556640625 110 245.280273438 110 515.615234375 c 0
 110 785.952148438 282.032226562 1056.28808594 576.944335938 1056.28808594 c 0
EndSplineSet
EndChar

StartChar: d
Encoding: 100 100 29
Width: 1192
VWidth: 2457
Flags: W
HStem: -25.0557 147.456<437.337 715.469> -0.480469 21G<916.008 1043.89> 908.832 147.456<437.337 716.628> 1454.08 20G<871.856 1043.89>
VStem: 110 172.033<303.579 727.653> 871.856 172.032<301.899 729.332 859.424 1474.08> 921.008 122.881<-0.480469 56.8632>
LayerCount: 2
Fore
SplineSet
921.0078125 -0.48046875 m 1x7a
 875.547851562 181.358398438 l 1
 829.963867188 59.5146484375 741.8984375 -25.0556640625 576.944335938 -25.0556640625 c 0
 282.033203125 -25.0556640625 110 245.280273438 110 515.615234375 c 0
 110 785.952148438 282.033203125 1056.28808594 576.944335938 1056.28808594 c 0
 737.548828125 1056.28808594 825.270507812 976.111328125 871.856445312 859.423828125 c 1
 871.856445312 1474.08007812 l 1
 1043.88867188 1474.08007812 l 1xbc
 1043.88867188 -0.48046875 l 1
 921.0078125 -0.48046875 l 1x7a
871.856445312 515.615234375 m 0
 871.856445312 736.799804688 748.9765625 908.83203125 576.944335938 908.83203125 c 0
 404.912109375 908.83203125 282.033203125 736.799804688 282.033203125 515.615234375 c 0
 282.033203125 294.432617188 404.912109375 122.400390625 576.944335938 122.400390625 c 0
 748.9765625 122.400390625 871.856445312 294.432617188 871.856445312 515.615234375 c 0
EndSplineSet
EndChar

StartChar: e
Encoding: 101 101 30
Width: 1169
VWidth: 2948
Flags: W
HStem: -25.0557 147.456<436.547 764.956> 908.832 147.456<436.942 717.341>
VStem: 110 172.734<544.404 725.973>
LayerCount: 2
Fore
SplineSet
110 515.615234375 m 0
 110 785.952148438 282.032226562 1056.28808594 576.944335938 1056.28808594 c 0
 871.85546875 1056.28808594 1043.88867188 785.952148438 1043.88867188 515.615234375 c 1
 295.9140625 390.951171875 l 1
 332.625976562 233.045898438 438.978515625 122.400390625 576.944335938 122.400390625 c 0
 763.83984375 122.400390625 871.85546875 220.704101562 945.583984375 368.16015625 c 1
 1043.42089844 245.280273438 l 2
 994.736328125 146.9765625 871.85546875 -25.0556640625 576.944335938 -25.0556640625 c 0
 282.032226562 -25.0556640625 110 245.280273438 110 515.615234375 c 0
282.734375 544.404296875 m 1
 857.970703125 640.279296875 l 1
 821.263671875 798.186523438 714.909179688 908.83203125 576.944335938 908.83203125 c 0
 412.451171875 908.83203125 292.8984375 751.55078125 282.734375 544.404296875 c 1
EndSplineSet
EndChar

StartChar: f
Encoding: 102 102 31
Width: 799
VWidth: 2457
Flags: W
HStem: -0.480469 21G<248.456 420.488> 884.256 147.456<101 248.456 420.488 641.672> 1326.62 147.457<452.954 641.672>
VStem: 248.456 172.032<-0.480469 884.256 1031.71 1295.82>
LayerCount: 2
Fore
SplineSet
690.823242188 1474.08007812 m 1
 641.671875 1326.62304688 l 1
 518.791992188 1326.62304688 l 2
 469.640625 1326.62304688 420.48828125 1252.89648438 420.48828125 1179.16796875 c 2
 420.48828125 1031.71191406 l 1
 641.671875 1031.71191406 l 1
 641.671875 884.255859375 l 1
 420.48828125 884.255859375 l 1
 420.48828125 -0.48046875 l 1
 248.456054688 -0.48046875 l 1
 248.456054688 884.255859375 l 1
 101 884.255859375 l 1
 101 1031.71191406 l 1
 248.456054688 1031.71191406 l 1
 248.456054688 1179.16796875 l 2
 248.456054688 1302.04785156 297.608398438 1474.08007812 518.791992188 1474.08007812 c 2
 690.823242188 1474.08007812 l 1
EndSplineSet
EndChar

StartChar: g
Encoding: 103 103 32
Width: 1188
VWidth: 2948
Flags: W
HStem: -442.848 147.455<405.247 776.502> -25.0557 147.456<437.337 716.628> 908.832 147.456<437.337 715.468> 1011.71 20G<916.008 1043.89>
VStem: 110 172.032<303.579 727.653> 871.855 172.033<-206.13 171.808 301.899 729.332> 921.008 122.881<974.37 1031.71>
LayerCount: 2
Fore
SplineSet
921.0078125 1031.71191406 m 1xda
 1043.88867188 1031.71191406 l 1xda
 1043.88867188 -49.6328125 l 2
 1043.88867188 -319.967773438 847.280273438 -442.84765625 576.944335938 -442.84765625 c 0
 306.607421875 -442.84765625 159.15234375 -221.6640625 159.15234375 -221.6640625 c 1
 282.032226562 -147.936523438 l 1
 282.032226562 -147.936523438 380.3359375 -295.392578125 576.944335938 -295.392578125 c 0
 773.551757812 -295.392578125 871.85546875 -221.6640625 871.85546875 -49.6328125 c 2
 871.85546875 171.807617188 l 1
 825.270507812 55.1201171875 737.548828125 -25.0556640625 576.944335938 -25.0556640625 c 0
 282.032226562 -25.0556640625 110 245.280273438 110 515.615234375 c 0
 110 785.952148438 282.032226562 1056.28808594 576.944335938 1056.28808594 c 0xec
 741.8984375 1056.28808594 829.963867188 971.717773438 875.546875 849.874023438 c 1
 921.0078125 1031.71191406 l 1xda
871.85546875 515.615234375 m 0xec
 871.85546875 736.799804688 748.9765625 908.83203125 576.944335938 908.83203125 c 0
 404.912109375 908.83203125 282.032226562 736.799804688 282.032226562 515.615234375 c 0
 282.032226562 294.432617188 404.912109375 122.400390625 576.944335938 122.400390625 c 0
 748.9765625 122.400390625 871.85546875 294.432617188 871.85546875 515.615234375 c 0xec
EndSplineSet
EndChar

StartChar: h
Encoding: 104 104 33
Width: 1124
VWidth: 2457
Flags: W
HStem: -0.480469 21G<150 322.033 813.553 985.585> 908.832 147.456<445.253 688.5> 1454.08 20G<150 322.033>
VStem: 150 172.033<-0.480469 764.003 898.471 1474.08> 813.553 172.032<-0.480469 764.003>
LayerCount: 2
Fore
SplineSet
322.033203125 -0.48046875 m 1
 150 -0.48046875 l 1
 150 1474.08007812 l 1
 322.033203125 1474.08007812 l 1
 322.033203125 898.470703125 l 1
 364.028320312 995.3984375 438.849609375 1056.28808594 567.79296875 1056.28808594 c 0
 813.552734375 1056.28808594 985.584960938 835.103515625 985.584960938 564.767578125 c 2
 985.584960938 -0.48046875 l 1
 813.552734375 -0.48046875 l 1
 813.552734375 564.767578125 l 2
 813.552734375 785.952148438 690.671875 908.83203125 567.79296875 908.83203125 c 0
 444.912109375 908.83203125 322.033203125 785.952148438 322.033203125 564.767578125 c 2
 322.033203125 -0.48046875 l 1
EndSplineSet
EndChar

StartChar: i
Encoding: 105 105 34
Width: 470
VWidth: 2457
Flags: HW
HStem: -0.480469 21G<150 322.032> 1011.71 20G<150 322.032> 1277.47 196.608<150 322.032>
VStem: 150 172.032<-0.480469 1031.71 1277.47 1474.08>
LayerCount: 2
Fore
SplineSet
150 -0.48046875 m 1
 150 1031.71191406 l 1
 322.032226562 1031.71191406 l 1
 322.032226562 -0.48046875 l 1
 150 -0.48046875 l 1
150 1277.47167969 m 1
 150 1474.08007812 l 1
 322.032226562 1474.08007812 l 1
 322.032226562 1277.47167969 l 1
 150 1277.47167969 l 1
EndSplineSet
EndChar

StartChar: j
Encoding: 106 106 35
Width: 664
VWidth: 2457
Flags: HW
HStem: -393.696 147.456<123.152 311.87> 1011.71 20G<344.336 516.367> 1277.47 196.608<344.336 516.367>
VStem: 344.336 172.031<-215.433 1031.71 1277.47 1474.08>
LayerCount: 2
Fore
SplineSet
344.3359375 1277.47167969 m 1
 344.3359375 1474.08007812 l 1
 516.3671875 1474.08007812 l 1
 516.3671875 1277.47167969 l 1
 344.3359375 1277.47167969 l 1
74 -393.696289062 m 1
 123.15234375 -246.240234375 l 1
 246.032226562 -246.240234375 l 2
 295.184570312 -246.240234375 344.3359375 -172.51171875 344.3359375 -98.7841796875 c 2
 344.3359375 1031.71191406 l 1
 516.3671875 1031.71191406 l 1
 516.3671875 -98.7841796875 l 2
 516.3671875 -221.6640625 467.215820312 -393.696289062 246.032226562 -393.696289062 c 2
 74 -393.696289062 l 1
EndSplineSet
EndChar

StartChar: k
Encoding: 107 107 36
Width: 1237
VWidth: 2457
Flags: W
HStem: -0.480469 21G<150 322.033 893.523 1133.04> 1011.71 20G<743.224 985.585> 1454.08 20G<150 322.033>
VStem: 150 172.033<-0.480469 392.736 613.92 1474.08>
LayerCount: 2
Fore
SplineSet
150 -0.48046875 m 1
 150 1474.08007812 l 1
 322.033203125 1474.08007812 l 1
 322.033203125 613.919921875 l 1
 442.82421875 728.001953125 l 1
 444.912109375 732.041992188 l 1
 445.942382812 730.946289062 l 1
 764.400390625 1031.71191406 l 1
 985.584960938 1031.71191406 l 1
 553.903320312 616.018554688 l 1
 1133.04101562 -0.48046875 l 1
 911.856445312 -0.48046875 l 1
 443.864257812 510.057617188 l 1
 322.033203125 392.736328125 l 1
 322.033203125 -0.48046875 l 1
 150 -0.48046875 l 1
EndSplineSet
EndChar

StartChar: l
Encoding: 108 108 37
Width: 470
VWidth: 2457
Flags: HW
HStem: -0.480469 21G<150 322.033> 1454.08 20G<150 322.033>
VStem: 150 172.033<-0.480469 1474.08>
LayerCount: 2
Fore
SplineSet
150 -0.48046875 m 1
 150 1474.08007812 l 1
 322.033203125 1474.08007812 l 1
 322.033203125 -0.48046875 l 1
 150 -0.48046875 l 1
EndSplineSet
EndChar

StartChar: m
Encoding: 109 109 38
Width: 1779
VWidth: 2457
Flags: W
HStem: -0.480469 21G<142 314.032 805.552 977.584 1469.1 1641.14> 908.832 147.456<437.667 680.284 1101.51 1344.05> 1011.71 20G<142 269.88>
VStem: 142 172.032<-0.480469 764.003> 142 122.88<974.369 1031.71> 805.552 172.032<-0.480469 764.003> 1469.1 172.032<-0.480469 764.003>
LayerCount: 2
Fore
SplineSet
1223.34375 1056.28808594 m 0xce
 1469.10351562 1056.28808594 1641.13574219 835.103515625 1641.13574219 564.767578125 c 2
 1641.13574219 -0.48046875 l 1
 1469.10351562 -0.48046875 l 1
 1469.10351562 564.767578125 l 2
 1469.10351562 785.952148438 1346.22363281 908.83203125 1223.34375 908.83203125 c 0
 1100.46386719 908.83203125 977.583984375 785.952148438 977.583984375 564.767578125 c 2
 977.583984375 -0.48046875 l 1
 805.551757812 -0.48046875 l 1
 805.551757812 564.767578125 l 2
 805.551757812 785.952148438 682.670898438 908.83203125 559.791992188 908.83203125 c 0
 436.911132812 908.83203125 314.032226562 785.952148438 314.032226562 564.767578125 c 2
 314.032226562 -0.48046875 l 1
 142 -0.48046875 l 1xd6
 142 1031.71191406 l 1
 264.879882812 1031.71191406 l 1xae
 304.338867188 873.879882812 l 1
 344.104492188 984.98828125 420.260742188 1056.28808594 559.791992188 1056.28808594 c 0
 739.32421875 1056.28808594 879.506835938 938.254882812 942.02734375 769.25 c 1
 969.203125 938.254882812 1043.81152344 1056.28808594 1223.34375 1056.28808594 c 0xce
EndSplineSet
EndChar

StartChar: n
Encoding: 110 110 39
Width: 1116
VWidth: 2457
Flags: HW
HStem: -0.480469 21G<142 314.032 805.552 977.584> 908.832 147.456<437.667 680.499> 1011.71 20G<142 269.88>
VStem: 142 172.032<-0.480469 764.003> 142 122.88<974.369 1031.71> 805.552 172.032<-0.480469 764.003>
LayerCount: 2
Fore
SplineSet
304.338867188 873.879882812 m 1xac
 344.104492188 984.98828125 420.260742188 1056.28808594 559.791992188 1056.28808594 c 0
 805.551757812 1056.28808594 977.583984375 835.103515625 977.583984375 564.767578125 c 2
 977.583984375 -0.48046875 l 1
 805.551757812 -0.48046875 l 1
 805.551757812 564.767578125 l 2
 805.551757812 785.952148438 682.670898438 908.83203125 559.791992188 908.83203125 c 0
 436.911132812 908.83203125 314.032226562 785.952148438 314.032226562 564.767578125 c 2
 314.032226562 -0.48046875 l 1
 142 -0.48046875 l 1xd4
 142 1031.71191406 l 1
 264.879882812 1031.71191406 l 1
 304.338867188 873.879882812 l 1xac
EndSplineSet
EndChar

StartChar: o
Encoding: 111 111 40
Width: 1167
VWidth: 2457
Flags: W
HStem: -25.0557 147.456<437.337 716.552> 908.832 147.456<437.337 716.552>
VStem: 110 172.032<303.579 727.653> 871.855 172.033<303.579 727.653>
LayerCount: 2
Fore
SplineSet
110 515.615234375 m 0
 110 785.952148438 282.032226562 1056.28808594 576.944335938 1056.28808594 c 0
 871.85546875 1056.28808594 1043.88867188 785.952148438 1043.88867188 515.615234375 c 0
 1043.88867188 245.280273438 871.85546875 -25.0556640625 576.944335938 -25.0556640625 c 0
 282.032226562 -25.0556640625 110 245.280273438 110 515.615234375 c 0
576.944335938 908.83203125 m 0
 404.912109375 908.83203125 282.032226562 736.799804688 282.032226562 515.615234375 c 0
 282.032226562 294.432617188 404.912109375 122.400390625 576.944335938 122.400390625 c 0
 748.9765625 122.400390625 871.85546875 294.432617188 871.85546875 515.615234375 c 0
 871.85546875 736.799804688 748.9765625 908.83203125 576.944335938 908.83203125 c 0
EndSplineSet
EndChar

StartChar: p
Encoding: 112 112 41
Width: 1199
VWidth: 2457
Flags: W
HStem: -25.0557 147.456<469.26 748.552> 908.832 147.456<470.42 748.552> 1011.71 20G<142 269.88>
VStem: 142 172.032<-442.848 171.808 301.899 729.332> 142 122.88<974.369 1031.71> 903.855 172.032<303.579 727.653>
LayerCount: 2
Fore
SplineSet
264.879882812 1031.71191406 m 1xac
 310.33984375 849.874023438 l 1
 355.92578125 971.717773438 443.9921875 1056.28808594 608.944335938 1056.28808594 c 0
 903.85546875 1056.28808594 1075.88769531 785.952148438 1075.88769531 515.615234375 c 0
 1075.88769531 245.280273438 903.85546875 -25.0556640625 608.944335938 -25.0556640625 c 0
 448.336914062 -25.0556640625 360.619140625 55.1201171875 314.032226562 171.807617188 c 1
 314.032226562 -442.84765625 l 1
 142 -442.84765625 l 1xd4
 142 1031.71191406 l 1
 264.879882812 1031.71191406 l 1xac
314.032226562 515.615234375 m 0
 314.032226562 294.432617188 436.911132812 122.400390625 608.944335938 122.400390625 c 0
 780.9765625 122.400390625 903.85546875 294.432617188 903.85546875 515.615234375 c 0
 903.85546875 736.799804688 780.9765625 908.83203125 608.944335938 908.83203125 c 0
 436.911132812 908.83203125 314.032226562 736.799804688 314.032226562 515.615234375 c 0
EndSplineSet
EndChar

StartChar: q
Encoding: 113 113 42
Width: 1189
VWidth: 2457
Flags: HW
HStem: -442.848 21G<871.856 1043.89> -25.0557 147.456<437.337 716.628> 908.832 147.456<437.337 715.469> 1011.71 20G<916.008 1043.89>
VStem: 110 172.032<303.579 727.653> 871.856 172.032<-442.848 171.808 301.899 729.332> 921.008 122.881<974.369 1031.71>
LayerCount: 2
Fore
SplineSet
921.0078125 1031.71191406 m 1xda
 1043.88867188 1031.71191406 l 1xda
 1043.88867188 -442.84765625 l 1
 871.856445312 -442.84765625 l 1
 871.856445312 171.807617188 l 1
 825.270507812 55.1201171875 737.548828125 -25.0556640625 576.944335938 -25.0556640625 c 0
 282.032226562 -25.0556640625 110 245.280273438 110 515.615234375 c 0
 110 785.952148438 282.032226562 1056.28808594 576.944335938 1056.28808594 c 0xec
 741.8984375 1056.28808594 829.963867188 971.717773438 875.547851562 849.874023438 c 1
 921.0078125 1031.71191406 l 1xda
871.856445312 515.615234375 m 0xec
 871.856445312 736.799804688 748.9765625 908.83203125 576.944335938 908.83203125 c 0
 404.912109375 908.83203125 282.032226562 736.799804688 282.032226562 515.615234375 c 0
 282.032226562 294.432617188 404.912109375 122.400390625 576.944335938 122.400390625 c 0
 748.9765625 122.400390625 871.856445312 294.432617188 871.856445312 515.615234375 c 0xec
EndSplineSet
EndChar

StartChar: r
Encoding: 114 114 43
Width: 895
VWidth: 2457
Flags: W
HStem: -0.480469 21G<142 314.032> 908.832 147.456<470.42 690.394> 1011.71 20G<142 269.88>
VStem: 142 172.032<-0.480469 729.332> 142 122.88<974.369 1031.71>
LayerCount: 2
Fore
SplineSet
264.879882812 1031.71191406 m 1xa8
 310.33984375 849.874023438 l 1
 355.92578125 971.717773438 443.9921875 1056.28808594 608.944335938 1056.28808594 c 0
 634.448242188 1056.28808594 659.034179688 1054.26757812 682.670898438 1050.39453125 c 2
 780.9765625 839.901367188 l 1
 733.627929688 883.547851562 674.895507812 908.83203125 608.944335938 908.83203125 c 0
 436.911132812 908.83203125 314.032226562 736.799804688 314.032226562 515.615234375 c 2
 314.032226562 -0.48046875 l 1
 142 -0.48046875 l 1xd0
 142 1031.71191406 l 1
 264.879882812 1031.71191406 l 1xa8
EndSplineSet
EndChar

StartChar: s
Encoding: 115 115 44
Width: 1072
VWidth: 2457
Flags: W
HStem: -25.0557 147.456<362.452 710.697> 908.832 147.456<397.483 685.335>
VStem: 160.151 172.032<679.498 849.045> 774.552 172.032<181.421 377.668>
LayerCount: 2
Fore
SplineSet
160.151367188 761.376953125 m 0
 160.151367188 830.104492188 180.630859375 1056.28808594 528.791992188 1056.28808594 c 0
 799.392578125 1056.28808594 897.431640625 884.255859375 897.431640625 884.255859375 c 1
 799.127929688 736.799804688 l 1
 799.127929688 736.799804688 734.20703125 908.83203125 528.791992188 908.83203125 c 0
 414.84765625 908.83203125 332.18359375 830.104492188 332.18359375 761.376953125 c 0
 332.18359375 692.647460938 412.034179688 631.96875 528.791992188 613.919921875 c 0
 645.546875 595.87109375 946.583984375 533.669921875 946.583984375 293.109375 c 0
 946.583984375 145.673828125 876.950195312 -25.0556640625 528.791992188 -25.0556640625 c 0
 262.923828125 -25.0556640625 111 146.9765625 111 146.9765625 c 1
 209.303710938 294.432617188 l 1
 209.303710938 294.432617188 338.885742188 122.400390625 528.791992188 122.400390625 c 0
 702.874023438 122.400390625 774.551757812 191.3359375 774.551757812 294.432617188 c 0
 774.551757812 397.528320312 620.931640625 450.145507812 528.791992188 466.463867188 c 0
 436.653320312 482.782226562 160.151367188 520.81640625 160.151367188 761.376953125 c 0
EndSplineSet
EndChar

StartChar: t
Encoding: 116 116 45
Width: 805
VWidth: 2457
Flags: W
HStem: -0.480469 147.457<452.954 641.672> 884.256 147.456<101 248.456 420.488 641.672>
VStem: 248.456 172.032<177.783 884.256 1031.71 1277.47>
LayerCount: 2
Fore
SplineSet
690.823242188 -0.48046875 m 1
 518.791992188 -0.48046875 l 2
 297.607421875 -0.48046875 248.456054688 171.551757812 248.456054688 294.432617188 c 2
 248.456054688 884.255859375 l 1
 101 884.255859375 l 1
 101 1031.71191406 l 1
 248.456054688 1031.71191406 l 1
 248.456054688 1277.47167969 l 1
 420.48828125 1277.47167969 l 1
 420.48828125 1031.71191406 l 1
 641.671875 1031.71191406 l 1
 641.671875 884.255859375 l 1
 420.48828125 884.255859375 l 1
 420.48828125 294.432617188 l 2
 420.48828125 220.704101562 469.640625 146.9765625 518.791992188 146.9765625 c 2
 641.671875 146.9765625 l 1
 690.823242188 -0.48046875 l 1
EndSplineSet
EndChar

StartChar: u
Encoding: 117 117 46
Width: 1106
VWidth: 2457
Flags: HW
HStem: -25.0557 147.456<423.085 665.918> -0.480469 21G<833.704 961.585> 1011.71 20G<126 298.033 789.553 961.585>
VStem: 126 172.033<267.229 1031.71> 789.553 172.032<267.229 1031.71> 838.704 122.881<-0.480469 56.8625>
LayerCount: 2
Fore
SplineSet
799.245117188 157.352539062 m 1x74
 759.48046875 46.2431640625 683.325195312 -25.0556640625 543.79296875 -25.0556640625 c 0
 298.033203125 -25.0556640625 126 196.12890625 126 466.463867188 c 2
 126 1031.71191406 l 1
 298.033203125 1031.71191406 l 1
 298.033203125 466.463867188 l 2
 298.033203125 245.280273438 420.912109375 122.400390625 543.79296875 122.400390625 c 0
 666.671875 122.400390625 789.552734375 245.280273438 789.552734375 466.463867188 c 2
 789.552734375 1031.71191406 l 1
 961.584960938 1031.71191406 l 1xb8
 961.584960938 -0.48046875 l 1
 838.704101562 -0.48046875 l 1
 799.245117188 157.352539062 l 1x74
EndSplineSet
EndChar

StartChar: v
Encoding: 118 118 47
Width: 1135
VWidth: 2457
Flags: W
HStem: -0.480469 21G<459.498 658.103> 1011.71 20G<98 289.462 828.137 1019.6>
LayerCount: 2
Fore
SplineSet
282.319335938 1031.71191406 m 1
 558.799804688 257.567382812 l 1
 835.280273438 1031.71191406 l 1
 1019.59960938 1031.71191406 l 1
 650.959960938 -0.48046875 l 1
 466.640625 -0.48046875 l 1
 98 1031.71191406 l 1
 282.319335938 1031.71191406 l 1
EndSplineSet
EndChar

StartChar: w
Encoding: 119 119 48
Width: 1872
VWidth: 2457
Flags: HW
HStem: -0.480469 21G<459.498 658.103 1196.78 1395.38> 1011.71 20G<98 289.462 828.137 1026.74 1565.42 1756.88>
LayerCount: 2
Fore
SplineSet
98 1031.71191406 m 1
 282.319335938 1031.71191406 l 1
 558.799804688 257.567382812 l 1
 835.280273438 1031.71191406 l 1
 1019.59960938 1031.71191406 l 1
 1296.08007812 257.567382812 l 1
 1572.55957031 1031.71191406 l 1
 1756.88085938 1031.71191406 l 1
 1388.24023438 -0.48046875 l 1
 1203.91992188 -0.48046875 l 1
 927.440429688 773.6640625 l 1
 650.959960938 -0.48046875 l 1
 466.640625 -0.48046875 l 1
 98 1031.71191406 l 1
EndSplineSet
EndChar

StartChar: x
Encoding: 120 120 49
Width: 1078
VWidth: 2457
Flags: W
HStem: -0.480469 21G<120 328.988 746.596 955.584> 1011.71 20G<120 328.988 746.596 955.584>
LayerCount: 2
Fore
SplineSet
537.791992188 356.81640625 m 1
 316.607421875 -0.48046875 l 1
 120 -0.48046875 l 1
 439.48828125 515.615234375 l 1
 120 1031.71191406 l 1
 316.607421875 1031.71191406 l 1
 537.791992188 674.416015625 l 1
 758.9765625 1031.71191406 l 1
 955.583984375 1031.71191406 l 1
 636.095703125 515.615234375 l 1
 955.583984375 -0.48046875 l 1
 758.9765625 -0.48046875 l 1
 537.791992188 356.81640625 l 1
EndSplineSet
EndChar

StartChar: y
Encoding: 121 121 50
Width: 1134
VWidth: 2457
Flags: W
HStem: -442.848 147.455<159.44 345.957> 1011.71 20G<98 289.463 828.081 1019.6>
LayerCount: 2
Fore
SplineSet
98 1031.71191406 m 1
 282.3203125 1031.71191406 l 1
 557.69921875 260.649414062 l 1
 835.28125 1031.71191406 l 1
 1019.60058594 1031.71191406 l 1
 589.51953125 -147.936523438 l 2
 543.633789062 -257.78515625 464.546875 -442.84765625 282.3203125 -442.84765625 c 2
 110.2890625 -442.84765625 l 1
 159.440429688 -295.392578125 l 1
 282.3203125 -295.392578125 l 2
 331.471679688 -295.392578125 380.624023438 -221.6640625 405.200195312 -147.936523438 c 2
 465.171875 3.6337890625 l 1
 98 1031.71191406 l 1
EndSplineSet
EndChar

StartChar: z
Encoding: 122 122 51
Width: 1050
VWidth: 2457
Flags: W
HStem: -0.480469 172.032<377.76 918.433> 859.681 172.031<132 672.672>
LayerCount: 2
Fore
SplineSet
132 859.680664062 m 1
 132 1031.71191406 l 1
 918.432617188 1031.71191406 l 1
 918.432617188 908.83203125 l 1
 377.759765625 171.551757812 l 1
 918.432617188 171.551757812 l 1
 918.432617188 -0.48046875 l 1
 132 -0.48046875 l 1
 132 122.400390625 l 1
 672.671875 859.680664062 l 1
 132 859.680664062 l 1
EndSplineSet
EndChar

StartChar: comma
Encoding: 44 44 52
Width: 457
VWidth: 2948
Flags: HW
HStem: -265.997 501.292
VStem: 149.965 176.947<-96.6233 87.8975>
LayerCount: 2
Fore
SplineSet
149.96484375 235.294921875 m 1
 326.912109375 235.294921875 l 1
 326.912109375 239.782226562 326.912109375 87.8974609375 326.912109375 87.8974609375 c 2
 326.912109375 -207.013671875 90.982421875 -265.997070312 90.982421875 -265.997070312 c 1
 32 -177.5234375 l 1
 32 -177.5234375 149.96484375 -118.541015625 149.96484375 87.8974609375 c 2
 149.96484375 87.8974609375 149.96484375 239.782226562 149.96484375 235.294921875 c 1
EndSplineSet
EndChar

StartChar: period
Encoding: 46 46 54
Width: 431
VWidth: 2457
Flags: W
HStem: -0.367188 196.446<130 302.032>
VStem: 130 172.032
LayerCount: 2
Fore
SplineSet
130 196.079101562 m 1
 302.032226562 196.079101562 l 1
 302.032226562 199.818359375 302.032226562 -5.98046875 302.032226562 -0.3671875 c 1
 130 -0.3671875 l 1
 130 -5.98046875 130 199.818359375 130 196.079101562 c 1
EndSplineSet
EndChar

StartChar: exclam
Encoding: 33 33 55
Width: 459
VWidth: 2457
Flags: HW
HStem: -0.367188 196.446<143.001 315.033>
VStem: 143.001 172.032
LayerCount: 2
Fore
SplineSet
143 196.079101562 m 5
 315.032226562 196.079101562 l 5
 315.032226562 199.818359375 315.032226562 -5.98046875 315.032226562 -0.3671875 c 5
 143 -0.3671875 l 5
 143 -5.98046875 143 199.818359375 143 196.079101562 c 5
143 1473.81445312 m 5
 315.032226562 1473.81445312 l 5
 315.032226562 1493.45996094 315.032226562 413.010742188 315.032226562 442.477539062 c 5
 143 442.477539062 l 5
 143 413.010742188 143 1493.45996094 143 1473.81445312 c 5
EndSplineSet
EndChar

StartChar: dollar
Encoding: 36 36 56
Width: 1336
VWidth: 2457
Flags: HW
HStem: 1.05859 147.171<441.266 587.519 734.976 945.187> 1322.21 149.324<438.449 587.519 734.976 880.242>
VStem: 145.152 172.032<946.074 1214.84> 587.519 147.457<-147.937 1.05859 152.226 649.394 825.141 1321.87 1468.67 1621.54> 1054.46 172.032<240.41 520.971>
LayerCount: 2
Fore
SplineSet
587.51953125 1621.53613281 m 1
 734.9765625 1621.53613281 l 1
 734.9765625 1471.32324219 l 1
 1047.61816406 1447.51855469 1177.34472656 1277.47167969 1177.34472656 1277.47167969 c 1
 1079.04101562 1130.015625 l 1
 1079.04101562 1130.015625 963.896484375 1291.86328125 734.9765625 1321.87109375 c 1
 734.9765625 798.849609375 l 2
 919.251953125 769.038085938 1226.49609375 701.876953125 1226.49609375 392.736328125 c 0
 1226.49609375 186.484375 1142.27929688 18.73828125 734.9765625 1.05859375 c 1
 734.9765625 -147.936523438 l 1
 587.51953125 -147.936523438 l 1
 587.51953125 2.3125 l 1
 273.596679688 26.25390625 96 196.12890625 96 196.12890625 c 1
 194.3046875 343.583984375 l 1
 194.3046875 343.583984375 365.328125 183.475585938 587.51953125 152.225585938 c 1
 587.51953125 676.219726562 l 2
 425.8203125 706.247070312 145.15234375 779.473632812 145.15234375 1080.86328125 c 0
 145.15234375 1176.98046875 185.401367188 1442.671875 587.51953125 1471.52929688 c 1
 587.51953125 1621.53613281 l 1
587.51953125 1322.20507812 m 1
 452.575195312 1305.70507812 317.184570312 1240.29394531 317.184570312 1080.86328125 c 0
 317.184570312 920.942382812 450.684570312 857.143554688 587.51953125 825.140625 c 1
 587.51953125 1322.20507812 l 1
734.9765625 649.393554688 m 1
 734.9765625 148.229492188 l 1
 929.096679688 155.65625 1054.46386719 200.331054688 1054.46386719 392.736328125 c 0
 1054.46386719 571.973632812 869.181640625 623.313476562 734.9765625 649.393554688 c 1
EndSplineSet
EndChar

StartChar: numbersign
Encoding: 35 35 57
Width: 1327
VWidth: 2457
Flags: HW
HStem: -0.480469 21G<200.304 376.336 642.672 818.704> 392.736 147.456<102 278.947 480.47 721.314 922.839 1158.77> 982.56 147.456<175.729 396.912 598.436 839.28 1040.8 1232.5> 1454.08 20G<491.216 667.248 933.584 1109.62>
LayerCount: 2
Fore
SplineSet
200.303710938 -0.48046875 m 1
 278.947265625 392.736328125 l 1
 102 392.736328125 l 1
 102 540.192382812 l 1
 308.438476562 540.192382812 l 1
 396.912109375 982.559570312 l 1
 175.728515625 982.559570312 l 1
 175.728515625 1130.015625 l 1
 426.403320312 1130.015625 l 1
 495.215820312 1474.08007812 l 1
 667.248046875 1474.08007812 l 1
 598.435546875 1130.015625 l 1
 868.770507812 1130.015625 l 1
 937.583984375 1474.08007812 l 1
 1109.61523438 1474.08007812 l 1
 1040.80273438 1130.015625 l 1
 1232.49609375 1130.015625 l 1
 1232.49609375 982.559570312 l 1
 1011.31152344 982.559570312 l 1
 922.838867188 540.192382812 l 1
 1158.76757812 540.192382812 l 1
 1158.76757812 392.736328125 l 1
 893.34765625 392.736328125 l 1
 814.704101562 -0.48046875 l 1
 642.671875 -0.48046875 l 1
 721.314453125 392.736328125 l 1
 450.979492188 392.736328125 l 1
 372.3359375 -0.48046875 l 1
 200.303710938 -0.48046875 l 1
480.469726562 540.192382812 m 1
 750.806640625 540.192382812 l 1
 839.280273438 982.559570312 l 1
 568.944335938 982.559570312 l 1
 480.469726562 540.192382812 l 1
EndSplineSet
EndChar

StartChar: percent
Encoding: 37 37 58
Width: 1640
VWidth: 2457
Flags: HW
HStem: -25.0557 147.456<1124.94 1312.9> -0.480469 21G<334.185 541.459> 515.615 147.456<1124.94 1312.9> 810.528 147.456<338.51 526.467> 1351.2 147.456<338.51 526.467> 1454.08 20G<1109.95 1317.22>
VStem: 113 172.032<1014.5 1294.68> 579.944 172.032<1014.5 1294.68> 899.433 172.031<178.921 459.095> 1366.38 172.031<178.921 459.095>
LayerCount: 2
Fore
SplineSet
899.432617188 319.0078125 m 0xb3c0
 899.432617188 540.192382812 1022.31152344 663.071289062 1218.91992188 663.071289062 c 0
 1415.52832031 663.071289062 1538.40820312 540.192382812 1538.40820312 319.0078125 c 0
 1538.40820312 97.8232421875 1415.52832031 -25.0556640625 1218.91992188 -25.0556640625 c 0
 1022.31152344 -25.0556640625 899.432617188 97.8232421875 899.432617188 319.0078125 c 0xb3c0
1218.91992188 515.615234375 m 0
 1145.19238281 515.615234375 1071.46386719 441.888671875 1071.46386719 319.0078125 c 0
 1071.46386719 196.12890625 1145.19238281 122.400390625 1218.91992188 122.400390625 c 0
 1292.6484375 122.400390625 1366.37695312 196.12890625 1366.37695312 319.0078125 c 0
 1366.37695312 441.888671875 1292.6484375 515.615234375 1218.91992188 515.615234375 c 0
113 1154.59179688 m 0
 113 1375.77636719 235.880859375 1498.65625 432.48828125 1498.65625 c 0x3bc0
 629.095703125 1498.65625 751.9765625 1375.77636719 751.9765625 1154.59179688 c 0
 751.9765625 933.408203125 629.095703125 810.528320312 432.48828125 810.528320312 c 0
 235.880859375 810.528320312 113 933.408203125 113 1154.59179688 c 0
432.48828125 1351.20019531 m 0
 358.759765625 1351.20019531 285.032226562 1277.47167969 285.032226562 1154.59179688 c 0
 285.032226562 1031.71191406 358.759765625 957.984375 432.48828125 957.984375 c 0
 506.215820312 957.984375 579.944335938 1031.71191406 579.944335938 1154.59179688 c 0
 579.944335938 1277.47167969 506.215820312 1351.20019531 432.48828125 1351.20019531 c 0
1317.22363281 1474.08007812 m 1x77c0
 530.791992188 -0.48046875 l 1
 334.184570312 -0.48046875 l 1
 1120.61523438 1474.08007812 l 1
 1317.22363281 1474.08007812 l 1x77c0
EndSplineSet
EndChar

StartChar: ampersand
Encoding: 38 38 59
Width: 1369
VWidth: 2457
Flags: HW
HStem: -25.0557 172.032<426.501 826.853> -0.480469 21G<1066.82 1280.65> 1326.62 172.033<490.861 743.332>
VStem: 101 172.032<274.652 497.274> 248.456 172.032<991.708 1257.2> 813.704 172.032<1027.17 1257.2> 1058 162.19<428.882 548.881>
LayerCount: 2
Fore
SplineSet
985.736328125 1130.015625 m 0xae
 985.736328125 967.961914062 827.623046875 849.520507812 660.345703125 743.8828125 c 1
 982.16796875 357.696289062 l 1
 1024.71875 436.142578125 1051.63867188 532.224609375 1058.00488281 638.49609375 c 1
 1220.1953125 540.192382812 l 2
 1200.75683594 416.5546875 1157.1875 308.061523438 1096.86914062 220.0546875 c 2
 1280.6484375 -0.48046875 l 1
 1084.04003906 -0.48046875 l 1x6e
 994.318359375 103.711914062 l 1
 900.4765625 21.318359375 786.3515625 -25.0556640625 666.248046875 -25.0556640625 c 0
 364.782226562 -25.0556640625 101 125.127929688 101 392.736328125 c 0xb6
 101 551.978515625 253.666015625 669.103515625 417.682617188 773.354492188 c 1
 322.184570312 884.255859375 l 2
 264.477539062 971.087890625 248.45703125 1026.41796875 248.456054688 1130.015625 c 0
 248.456054688 1336.45410156 395.912109375 1498.65625 617.095703125 1498.65625 c 0
 838.280273438 1498.65625 985.736328125 1336.45410156 985.736328125 1130.015625 c 0xae
273.032226562 392.736328125 m 0xb6
 273.032226562 239.814453125 440.1484375 146.9765625 666.248046875 146.9765625 c 0
 748.291992188 146.9765625 822.576171875 177.897460938 883.922851562 231.915039062 c 2
 518.684570312 656.0625 l 2
 384.177734375 571.506835938 273.032226562 489.786132812 273.032226562 392.736328125 c 0xb6
813.704101562 1130.015625 m 0
 813.704101562 1233.23535156 739.9765625 1326.62304688 617.095703125 1326.62304688 c 0
 494.215820312 1326.62304688 420.48828125 1233.23535156 420.48828125 1130.015625 c 0x2e
 420.48828125 1057.78710938 445.063476562 1007.13671875 543.3671875 884.255859375 c 2
 561.454101562 862.55078125 l 2
 698.904296875 948.581054688 813.704101562 1031.3828125 813.704101562 1130.015625 c 0
EndSplineSet
EndChar

StartChar: parenleft
Encoding: 40 40 60
Width: 651
VWidth: 2457
Flags: HW
VStem: 115 172.032<293.678 1081.62>
LayerCount: 2
Fore
SplineSet
115 687.6484375 m 0
 115 1424.92871094 508.215820312 1670.68847656 508.215820312 1670.68847656 c 1
 557.368164062 1572.38476562 l 1
 557.368164062 1572.38476562 287.032226562 1302.04785156 287.032226562 687.6484375 c 0
 287.032226562 73.248046875 557.368164062 -197.087890625 557.368164062 -197.087890625 c 1
 508.215820312 -295.392578125 l 1
 508.215820312 -295.392578125 115 -49.6328125 115 687.6484375 c 0
EndSplineSet
EndChar

StartChar: parenright
Encoding: 41 41 61
Width: 655
VWidth: 2457
Flags: HW
VStem: 367.335 172.031<293.678 1081.62>
LayerCount: 2
Fore
SplineSet
539.3671875 687.6484375 m 0
 539.3671875 -49.6328125 146.151367188 -295.392578125 146.151367188 -295.392578125 c 1
 97 -197.087890625 l 1
 97 -197.087890625 367.3359375 73.248046875 367.3359375 687.6484375 c 0
 367.3359375 1302.04785156 97 1572.38476562 97 1572.38476562 c 1
 146.151367188 1670.68847656 l 1
 146.151367188 1670.68847656 539.3671875 1424.92871094 539.3671875 687.6484375 c 0
EndSplineSet
EndChar

StartChar: slash
Encoding: 47 47 62
Width: 867
VWidth: 2457
Flags: HW
LayerCount: 2
Fore
SplineSet
772.127929688 1572.38476562 m 1
 280.607421875 -197.087890625 l 1
 84 -197.087890625 l 1
 575.51953125 1572.38476562 l 1
 772.127929688 1572.38476562 l 1
EndSplineSet
EndChar

StartChar: braceleft
Encoding: 123 123 63
Width: 718
VWidth: 2457
Flags: HW
HStem: -295.393 147.456<492.106 582.52> 638.496 147.456<90.9998 236.202> 1572.38 147.455<492.106 582.52>
VStem: 287.608 172.032<-117.129 586.512 837.936 1541.58>
LayerCount: 2
Fore
SplineSet
287.607421875 1424.92871094 m 2
 287.607421875 1547.80761719 336.759765625 1719.83984375 557.944335938 1719.83984375 c 2
 631.670898438 1719.83984375 l 1
 582.51953125 1572.38476562 l 1
 557.944335938 1572.38476562 l 2
 508.791992188 1572.38476562 459.639648438 1498.65625 459.639648438 1424.92871094 c 2
 459.639648438 884.255859375 l 2
 459.639648438 835.103515625 410.48828125 712.223632812 263.032226562 712.223632812 c 1
 410.48828125 712.223632812 459.639648438 589.34375 459.639648438 540.192382812 c 2
 459.639648438 -0.48046875 l 2
 459.639648438 -74.2080078125 508.791992188 -147.936523438 557.944335938 -147.936523438 c 2
 582.51953125 -147.936523438 l 1
 631.670898438 -295.392578125 l 1
 557.944335938 -295.392578125 l 2
 336.759765625 -295.392578125 287.607421875 -123.359375 287.607421875 -0.48046875 c 2
 287.607421875 -0.48046875 287.607421875 392.736328125 287.607421875 491.040039062 c 0
 287.607421875 589.34375 189.303710938 638.49609375 91 638.49609375 c 1
 91 712.223632812 l 1
 91 785.952148438 l 1
 189.303710938 785.952148438 287.607421875 835.103515625 287.607421875 933.408203125 c 0
 287.607421875 1031.71191406 287.607421875 1424.92871094 287.607421875 1424.92871094 c 2
EndSplineSet
EndChar

StartChar: braceright
Encoding: 125 125 64
Width: 719
VWidth: 2457
Flags: HW
HStem: -295.393 147.456<134.151 224.566> 638.496 147.456<480.469 625.67> 1572.38 147.455<134.151 224.566>
VStem: 257.032 172.031<-117.129 586.512 837.936 1541.58>
LayerCount: 2
Fore
SplineSet
429.063476562 1424.92871094 m 2
 429.063476562 1424.92871094 429.063476562 1031.71191406 429.063476562 933.408203125 c 0
 429.063476562 835.103515625 527.3671875 785.952148438 625.670898438 785.952148438 c 1
 625.670898438 712.223632812 l 1
 625.670898438 638.49609375 l 1
 527.3671875 638.49609375 429.063476562 589.34375 429.063476562 491.040039062 c 0
 429.063476562 392.736328125 429.063476562 -0.48046875 429.063476562 -0.48046875 c 2
 429.063476562 -123.359375 379.911132812 -295.392578125 158.728515625 -295.392578125 c 2
 85 -295.392578125 l 1
 134.151367188 -147.936523438 l 1
 158.728515625 -147.936523438 l 2
 207.879882812 -147.936523438 257.032226562 -74.2080078125 257.032226562 -0.48046875 c 2
 257.032226562 540.192382812 l 2
 257.032226562 589.34375 306.18359375 712.223632812 453.639648438 712.223632812 c 1
 306.18359375 712.223632812 257.032226562 835.103515625 257.032226562 884.255859375 c 2
 257.032226562 1424.92871094 l 2
 257.032226562 1498.65625 207.879882812 1572.38476562 158.728515625 1572.38476562 c 2
 134.151367188 1572.38476562 l 1
 85 1719.83984375 l 1
 158.728515625 1719.83984375 l 2
 379.911132812 1719.83984375 429.063476562 1547.80761719 429.063476562 1424.92871094 c 2
EndSplineSet
EndChar

StartChar: bracketleft
Encoding: 91 91 65
Width: 685
VWidth: 2457
Flags: HW
HStem: -295.393 147.456<321.032 591.367> 1572.38 147.455<321.032 591.367>
VStem: 148.999 442.367<-295.393 -147.937 1572.38 1719.84> 148.999 172.032<-147.937 1572.38>
LayerCount: 2
Fore
SplineSet
149 1719.83984375 m 1xe0
 591.3671875 1719.83984375 l 1
 591.3671875 1572.38476562 l 1xe0
 321.032226562 1572.38476562 l 1
 321.032226562 -147.936523438 l 1xd0
 591.3671875 -147.936523438 l 1
 591.3671875 -295.392578125 l 1
 149 -295.392578125 l 1
 149 1719.83984375 l 1xe0
EndSplineSet
EndChar

StartChar: bracketright
Encoding: 93 93 66
Width: 686
VWidth: 2457
Flags: HW
HStem: -295.393 147.456<92.9999 363.336> 1572.38 147.455<92.9999 363.336>
VStem: 92.9999 442.367<-295.393 -147.937 1572.38 1719.84> 363.336 172.031<-147.937 1572.38>
LayerCount: 2
Fore
SplineSet
535.3671875 1719.83984375 m 1xe0
 535.3671875 -295.392578125 l 1
 93 -295.392578125 l 1
 93 -147.936523438 l 1xe0
 363.3359375 -147.936523438 l 1
 363.3359375 1572.38476562 l 1xd0
 93 1572.38476562 l 1
 93 1719.83984375 l 1
 535.3671875 1719.83984375 l 1xe0
EndSplineSet
EndChar

StartChar: question
Encoding: 63 63 67
Width: 1049
VWidth: 2457
Flags: HW
HStem: -0.367188 196.446<440.063 612.096> 1326.62 172.033<359.834 675.931>
VStem: 442.759 172.03<-0.477073 196.079 368.16 650.355> 759.552 172.032<924.807 1243.08>
LayerCount: 2
Fore
SplineSet
440.063476562 196.079101562 m 1
 612.095703125 196.079101562 l 1
 612.095703125 199.818359375 612.095703125 -5.98046875 612.095703125 -0.3671875 c 1
 440.063476562 -0.3671875 l 1
 440.063476562 -5.98046875 440.063476562 199.818359375 440.063476562 196.079101562 c 1
614.7890625 368.16015625 m 1
 442.758789062 368.16015625 l 1
 442.758789062 589.34375 l 2
 442.758789062 699.936523438 525.702148438 755.232421875 608.646484375 810.528320312 c 0
 691.588867188 865.823242188 759.551757812 970.271484375 759.551757812 1080.86328125 c 0
 759.551757812 1228.31933594 698.111328125 1326.62304688 513.791992188 1326.62304688 c 0
 349.69140625 1326.62304688 246.150390625 1203.74414062 221.573242188 1080.86328125 c 1
 96 1179.16796875 l 1
 159.705078125 1383.14453125 351.036132812 1498.65625 516.487304688 1498.65625 c 0
 737.669921875 1498.65625 931.583984375 1375.77636719 931.583984375 1080.86328125 c 0
 931.583984375 897.959960938 831.235351562 765.16015625 734.297851562 701.62109375 c 0
 725.916992188 696.130859375 717.522460938 690.7890625 709.284179688 685.544921875 c 0
 659.154296875 653.64453125 614.7890625 625.416992188 614.7890625 589.34375 c 2
 614.7890625 368.16015625 l 1
EndSplineSet
EndChar

StartChar: quotedblleft
Encoding: 256 8220 68
Width: 783
VWidth: 2457
Flags: W
HStem: 1154.68 417.74
VStem: 129 147.456<1277.5 1441.49> 423.912 147.455<1277.5 1441.49>
LayerCount: 2
Fore
SplineSet
276.456054688 1154.67578125 m 1
 129 1154.67578125 l 1
 129 1150.9296875 129 1277.50195312 129 1277.50195312 c 2
 129 1523.26269531 325.607421875 1572.41601562 325.607421875 1572.41601562 c 1
 374.759765625 1498.6875 l 1
 374.759765625 1498.6875 276.456054688 1449.53320312 276.456054688 1277.50195312 c 2
 276.456054688 1277.50195312 276.456054688 1150.9296875 276.456054688 1154.67578125 c 1
571.3671875 1154.67578125 m 1
 423.912109375 1154.67578125 l 1
 423.912109375 1150.9296875 423.912109375 1277.50195312 423.912109375 1277.50195312 c 2
 423.912109375 1523.26269531 620.51953125 1572.41601562 620.51953125 1572.41601562 c 1
 669.671875 1498.6875 l 1
 669.671875 1498.6875 571.3671875 1449.53320312 571.3671875 1277.50195312 c 2
 571.3671875 1277.50195312 571.3671875 1150.9296875 571.3671875 1154.67578125 c 1
EndSplineSet
EndChar

StartChar: quotedblright
Encoding: 181 8221 69
Width: 787
VWidth: 2457
Flags: W
HStem: 1154.59 417.742
VStem: 217.304 147.456<1285.52 1449.5> 512.216 147.456<1285.52 1449.5>
LayerCount: 2
Fore
SplineSet
512.215820312 1572.33398438 m 1
 659.671875 1572.33398438 l 1
 659.671875 1576.07617188 659.671875 1449.50390625 659.671875 1449.50390625 c 2
 659.671875 1203.74414062 463.063476562 1154.59179688 463.063476562 1154.59179688 c 1
 413.912109375 1228.31933594 l 1
 413.912109375 1228.31933594 512.215820312 1277.47167969 512.215820312 1449.50390625 c 2
 512.215820312 1449.50390625 512.215820312 1576.07617188 512.215820312 1572.33398438 c 1
217.303710938 1572.33398438 m 1
 364.759765625 1572.33398438 l 1
 364.759765625 1576.07617188 364.759765625 1449.50390625 364.759765625 1449.50390625 c 2
 364.759765625 1203.74414062 168.15234375 1154.59179688 168.15234375 1154.59179688 c 1
 119 1228.31933594 l 1
 119 1228.31933594 217.303710938 1277.47167969 217.303710938 1449.50390625 c 2
 217.303710938 1449.50390625 217.303710938 1576.07617188 217.303710938 1572.33398438 c 1
EndSplineSet
EndChar

StartChar: quoteleft
Encoding: 257 8216 70
Width: 488
VWidth: 2457
Flags: HW
HStem: 1154.68 417.74
VStem: 129 147.456<1277.5 1441.49>
LayerCount: 2
Fore
SplineSet
276.456054688 1154.67578125 m 1
 129 1154.67578125 l 1
 129 1150.9296875 129 1277.50195312 129 1277.50195312 c 2
 129 1523.26269531 325.607421875 1572.41601562 325.607421875 1572.41601562 c 1
 374.759765625 1498.6875 l 1
 374.759765625 1498.6875 276.456054688 1449.53320312 276.456054688 1277.50195312 c 2
 276.456054688 1277.50195312 276.456054688 1150.9296875 276.456054688 1154.67578125 c 1
EndSplineSet
EndChar

StartChar: quoteright
Encoding: 258 8217 71
Width: 492
VWidth: 2457
Flags: HW
HStem: 1154.59 417.742
VStem: 217.304 147.456<1285.52 1449.5>
LayerCount: 2
Fore
SplineSet
217.303710938 1572.33398438 m 1
 364.759765625 1572.33398438 l 1
 364.759765625 1576.07617188 364.759765625 1449.50390625 364.759765625 1449.50390625 c 2
 364.759765625 1203.74414062 168.15234375 1154.59179688 168.15234375 1154.59179688 c 1
 119 1228.31933594 l 1
 119 1228.31933594 217.303710938 1277.47167969 217.303710938 1449.50390625 c 2
 217.303710938 1449.50390625 217.303710938 1576.07617188 217.303710938 1572.33398438 c 1
EndSplineSet
EndChar

StartChar: quotedbl
Encoding: 34 34 72
Width: 706
VWidth: 0
Flags: HW
HStem: 1179.17 393.166
VStem: 132 147.456<1179.24 1474.08> 426.912 147.455<1179.24 1474.08>
LayerCount: 2
Fore
SplineSet
132 1572.33398438 m 1
 279.456054688 1572.33398438 l 1
 279.456054688 1576.07617188 279.456054688 1474.08007812 279.456054688 1474.08007812 c 2
 279.456054688 1197.47167969 242.591796875 1039.16796875 242.591796875 1039.16796875 c 1
 168.86328125 1039.16796875 l 1
 168.86328125 1039.16796875 132 1197.47167969 132 1474.08007812 c 2
 132 1474.08007812 132 1576.07617188 132 1572.33398438 c 1
426.912109375 1572.33398438 m 1
 574.3671875 1572.33398438 l 1
 574.3671875 1576.07617188 574.3671875 1474.08007812 574.3671875 1474.08007812 c 2
 574.3671875 1197.47167969 537.50390625 1039.16796875 537.50390625 1039.16796875 c 1
 463.776367188 1039.16796875 l 1
 463.776367188 1039.16796875 426.912109375 1197.47167969 426.912109375 1474.08007812 c 2
 426.912109375 1474.08007812 426.912109375 1576.07617188 426.912109375 1572.33398438 c 1
EndSplineSet
EndChar

StartChar: quotesingle
Encoding: 39 39 73
Width: 411
VWidth: 2457
Flags: W
HStem: 1039.17 533.166
VStem: 132 147.456<1039.28 1474.08>
LayerCount: 2
Fore
SplineSet
132 1572.33398438 m 1
 279.456054688 1572.33398438 l 1
 279.456054688 1576.07617188 279.456054688 1474.08007812 279.456054688 1474.08007812 c 2
 279.456054688 1197.47167969 242.591796875 1039.16796875 242.591796875 1039.16796875 c 1
 168.86328125 1039.16796875 l 1
 168.86328125 1039.16796875 132 1197.47167969 132 1474.08007812 c 2
 132 1474.08007812 132 1576.07617188 132 1572.33398438 c 1
EndSplineSet
EndChar

StartChar: semicolon
Encoding: 59 59 74
Width: 507
VWidth: 2457
Flags: HW
HStem: 835.218 196.444<202.016 374.048>
VStem: 214.304 147.456<-90.7364 73.248 73.3398 196.079 835.108 1031.66>
LayerCount: 2
Fore
SplineSet
214.303710938 196.079101562 m 1
 361.759765625 196.079101562 l 1
 361.759765625 199.818359375 361.759765625 73.248046875 361.759765625 73.248046875 c 2
 361.759765625 -172.51171875 165.15234375 -221.6640625 165.15234375 -221.6640625 c 1
 116 -147.936523438 l 1
 116 -147.936523438 214.303710938 -98.7841796875 214.303710938 73.248046875 c 2
 214.303710938 73.248046875 214.303710938 199.818359375 214.303710938 196.079101562 c 1
202.015625 1031.66210938 m 1
 374.047851562 1031.66210938 l 1
 374.047851562 1035.40332031 374.047851562 829.604492188 374.047851562 835.217773438 c 1
 202.015625 835.217773438 l 1
 202.015625 829.604492188 202.015625 1035.40332031 202.015625 1031.66210938 c 1
EndSplineSet
EndChar

StartChar: colon
Encoding: 58 58 75
Width: 444
VWidth: 2457
Flags: HW
HStem: -0.367188 196.446<136 308.032> 835.218 196.444<136 308.032>
VStem: 136 172.032
LayerCount: 2
Fore
SplineSet
136 196.079101562 m 1
 308.032226562 196.079101562 l 1
 308.032226562 199.818359375 308.032226562 -5.98046875 308.032226562 -0.3671875 c 1
 136 -0.3671875 l 1
 136 -5.98046875 136 199.818359375 136 196.079101562 c 1
136 1031.66210938 m 1
 308.032226562 1031.66210938 l 1
 308.032226562 1035.40332031 308.032226562 829.604492188 308.032226562 835.217773438 c 1
 136 835.217773438 l 1
 136 829.604492188 136 1035.40332031 136 1031.66210938 c 1
EndSplineSet
EndChar

StartChar: asterisk
Encoding: 42 42 76
Width: 915
VWidth: 2457
Flags: HW
HStem: 1454.08 20G<381.106 528.562>
VStem: 120.005 669.662
LayerCount: 2
Fore
SplineSet
528.5625 1474.08007812 m 1
 510.92578125 1227.16992188 l 1
 715.938476562 1365.89648438 l 1
 789.666992188 1238.19921875 l 1
 567.017578125 1130.015625 l 1
 789.666992188 1021.83300781 l 1
 715.938476562 894.135742188 l 1
 510.92578125 1032.86230469 l 1
 528.5625 785.952148438 l 1
 381.106445312 785.952148438 l 1
 398.7421875 1032.86230469 l 1
 193.732421875 894.135742188 l 1
 120.004882812 1021.83300781 l 1
 342.651367188 1130.015625 l 1
 120 1238.19921875 l 1
 193.728515625 1365.89648438 l 1
 398.743164062 1227.16992188 l 1
 381.106445312 1474.08007812 l 1
 528.5625 1474.08007812 l 1
EndSplineSet
EndChar

StartChar: plus
Encoding: 43 43 77
Width: 1087
VWidth: 2457
Flags: HW
HStem: 454.177 172.031<127 458.776 630.808 962.584>
VStem: 458.776 172.031<122.4 454.177 626.208 957.984>
LayerCount: 2
Fore
SplineSet
458.776367188 957.984375 m 1
 630.807617188 957.984375 l 1
 630.807617188 626.208007812 l 1
 962.583984375 626.208007812 l 1
 962.583984375 454.176757812 l 1
 630.807617188 454.176757812 l 1
 630.807617188 122.400390625 l 1
 458.776367188 122.400390625 l 1
 458.776367188 454.176757812 l 1
 127 454.176757812 l 1
 127 626.208007812 l 1
 458.776367188 626.208007812 l 1
 458.776367188 957.984375 l 1
EndSplineSet
EndChar

StartChar: equal
Encoding: 61 61 78
Width: 1253
VWidth: 2457
Flags: HW
HStem: 159.264 172.032<135 1118.04> 650.784 172.031<135 1118.04>
LayerCount: 2
Fore
SplineSet
135 822.815429688 m 1
 1118.04003906 822.815429688 l 1
 1118.04003906 650.784179688 l 1
 135 650.784179688 l 1
 135 822.815429688 l 1
135 331.295898438 m 1
 1118.04003906 331.295898438 l 1
 1118.04003906 159.263671875 l 1
 135 159.263671875 l 1
 135 331.295898438 l 1
EndSplineSet
EndChar

StartChar: asciicircum
Encoding: 94 94 79
Width: 829
VWidth: 2457
Flags: HW
HStem: 933.408 540.672
VStem: 107 614.4
LayerCount: 2
Fore
SplineSet
107 982.559570312 m 1
 328.184570312 1474.08007812 l 1
 500.215820312 1474.08007812 l 1
 721.400390625 982.559570312 l 1
 598.51953125 933.408203125 l 1
 414.200195312 1302.04785156 l 1
 229.880859375 933.408203125 l 1
 107 982.559570312 l 1
EndSplineSet
EndChar

StartChar: hyphen
Encoding: 45 45 80
Width: 1111
VWidth: 2457
Flags: HW
HStem: 454.177 172.031<139 974.584>
LayerCount: 2
Fore
SplineSet
139 626.208007812 m 1
 974.583984375 626.208007812 l 1
 974.583984375 454.176757812 l 1
 139 454.176757812 l 1
 139 626.208007812 l 1
EndSplineSet
EndChar

StartChar: less
Encoding: 60 60 81
Width: 1229
VWidth: 2948
Flags: HW
LayerCount: 2
Fore
SplineSet
1055.88867188 1080.86328125 m 1
 1105.04003906 933.408203125 l 1
 300.734375 491.040039062 l 1
 1105.04003906 48.671875 l 1
 1055.88867188 -98.7841796875 l 1
 122 392.736328125 l 1
 122 589.34375 l 1
 1055.88867188 1080.86328125 l 1
EndSplineSet
EndChar

StartChar: greater
Encoding: 62 62 82
Width: 1228
VWidth: 2948
Flags: HW
LayerCount: 2
Fore
SplineSet
174.15234375 1080.86328125 m 1
 1108.04003906 589.34375 l 1
 1108.04003906 392.736328125 l 1
 174.15234375 -98.7841796875 l 1
 125 48.671875 l 1
 929.303710938 491.040039062 l 1
 125 933.408203125 l 1
 174.15234375 1080.86328125 l 1
EndSplineSet
EndChar

StartChar: underscore
Encoding: 95 95 83
Width: 1238
VWidth: 2457
Flags: W
HStem: -184.8 172.032<127 1110.04>
LayerCount: 2
Fore
SplineSet
127 -12.767578125 m 1
 1110.04003906 -12.767578125 l 1
 1110.04003906 -184.799804688 l 1
 127 -184.799804688 l 1
 127 -12.767578125 l 1
EndSplineSet
EndChar

StartChar: bar
Encoding: 124 124 84
Width: 472
VWidth: 2457
Flags: HW
VStem: 149 172.032<-442.848 1916.45>
LayerCount: 2
Fore
SplineSet
321.032226562 1916.44824219 m 1
 321.032226562 -442.84765625 l 1
 149 -442.84765625 l 1
 149 1916.44824219 l 1
 321.032226562 1916.44824219 l 1
EndSplineSet
EndChar

StartChar: zero
Encoding: 48 48 85
Width: 1302
VWidth: 2457
Flags: HW
HStem: -25.0557 147.456<504.115 799.229> 1351.2 147.456<504.115 799.229>
VStem: 111 172.032<446.942 1026.66> 1020.31 172.032<446.942 1026.66>
LayerCount: 2
Fore
SplineSet
111 736.799804688 m 0
 111 1056.28808594 258.456054688 1498.65625 651.671875 1498.65625 c 0
 1044.88867188 1498.65625 1192.34375 1056.28808594 1192.34375 736.799804688 c 0
 1192.34375 417.311523438 1044.88867188 -25.0556640625 651.671875 -25.0556640625 c 0
 258.456054688 -25.0556640625 111 417.311523438 111 736.799804688 c 0
651.671875 1351.20019531 m 0
 356.759765625 1351.20019531 283.032226562 933.408203125 283.032226562 736.799804688 c 0
 283.032226562 540.192382812 356.759765625 122.400390625 651.671875 122.400390625 c 0
 946.583984375 122.400390625 1020.31152344 540.192382812 1020.31152344 736.799804688 c 0
 1020.31152344 933.408203125 946.583984375 1351.20019531 651.671875 1351.20019531 c 0
EndSplineSet
EndChar

StartChar: one
Encoding: 49 49 86
Width: 782
VWidth: 2457
Flags: HW
HStem: -0.480469 21G<465.641 637.672> 1454.08 20G<458.126 637.672>
VStem: 465.641 172.031<-0.480469 1277.47>
LayerCount: 2
Fore
SplineSet
465.640625 -0.48046875 m 1
 465.640625 1277.47167969 l 1
 146.15234375 1203.74414062 l 1
 97 1326.62304688 l 1
 514.791992188 1474.08007812 l 1
 637.671875 1474.08007812 l 1
 637.671875 -0.48046875 l 1
 465.640625 -0.48046875 l 1
EndSplineSet
EndChar

StartChar: two
Encoding: 50 50 87
Width: 1187
VWidth: 2457
Flags: HW
HStem: -0.480469 172.032<287.032 1073.46> 1326.62 172.033<412.741 752.406>
VStem: 115 172.032<171.552 348.135> 876.855 172.033<875.712 1200.7>
LayerCount: 2
Fore
SplineSet
1073.46386719 -0.48046875 m 1
 115 -0.48046875 l 1
 115 171.551757812 l 2
 115 392.736328125 237.880859375 572.4453125 557.3671875 712.223632812 c 0
 583.30078125 723.568359375 609.350585938 734.1796875 634.94921875 744.610351562 c 0
 788.540039062 807.185546875 876.85546875 863.1953125 876.85546875 1031.71191406 c 0
 876.85546875 1228.31933594 753.9765625 1326.62304688 581.944335938 1326.62304688 c 0
 424.901367188 1326.62304688 312.9140625 1244.70214844 290.30859375 1080.86328125 c 1
 131.95703125 1160.38671875 l 1
 191.556640625 1376.04101562 374.462890625 1498.65625 581.944335938 1498.65625 c 0
 827.704101562 1498.65625 1048.88867188 1326.62304688 1048.88867188 1031.71191406 c 0
 1048.88867188 757.974609375 886.303710938 674.799804688 659.36328125 585.65234375 c 0
 641.811523438 578.755859375 624.166015625 571.826171875 606.51953125 564.767578125 c 0
 449.782226562 502.07421875 287.032226562 392.736328125 287.032226562 171.551757812 c 1
 1073.46386719 171.551757812 l 1
 1073.46386719 -0.48046875 l 1
EndSplineSet
EndChar

StartChar: three
Encoding: 51 51 88
Width: 1167
VWidth: 2457
Flags: HW
HStem: -25.0557 172.032<400.831 747.84> 663.071 147.457<372.336 696.142> 1326.62 172.033<392.565 708.158>
VStem: 814.704 172.032<918.138 1221.01> 888.433 172.031<272.44 551.179>
LayerCount: 2
Fore
SplineSet
814.704101562 1056.28808594 m 0xf0
 814.704101562 1252.89648438 691.823242188 1326.62304688 544.3671875 1326.62304688 c 0
 396.912109375 1326.62304688 298.607421875 1228.31933594 274.033203125 1105.44042969 c 1
 126.576171875 1179.16796875 l 2
 174.118164062 1357.49609375 347.759765625 1498.65625 544.3671875 1498.65625 c 0
 839.280273438 1498.65625 986.736328125 1302.04785156 986.736328125 1056.28808594 c 0xf0
 986.736328125 810.528320312 814.704101562 736.799804688 765.551757812 736.799804688 c 1
 790.12890625 736.799804688 l 2
 839.280273438 736.799804688 1060.46386719 687.6484375 1060.46386719 417.311523438 c 0
 1060.46386719 146.9765625 814.704101562 -25.0556640625 568.944335938 -25.0556640625 c 0
 354.842773438 -25.0556640625 143.99609375 111.434570312 102 319.0078125 c 1
 249.456054688 368.16015625 l 1
 298.607421875 196.12890625 478.387695312 146.9765625 568.944335938 146.9765625 c 0
 667.248046875 146.9765625 888.432617188 196.12890625 888.432617188 417.311523438 c 0xe8
 888.432617188 638.49609375 642.671875 663.071289062 544.3671875 663.071289062 c 2
 323.184570312 663.071289062 l 1
 372.3359375 810.528320312 l 1
 544.3671875 810.528320312 l 2
 618.095703125 810.528320312 814.704101562 859.680664062 814.704101562 1056.28808594 c 0xf0
EndSplineSet
EndChar

StartChar: four
Encoding: 52 52 89
Width: 1171
VWidth: 2457
Flags: HW
HStem: -0.480469 21G<736.977 909.008> 343.584 172.031<319.185 736.977 909.008 1031.89> 1454.08 20G<724.294 909.008>
VStem: 736.977 172.031<-0.480469 343.584 515.615 1179.17>
LayerCount: 2
Fore
SplineSet
98 466.463867188 m 1
 736.9765625 1474.08007812 l 1
 909.0078125 1474.08007812 l 1
 909.0078125 515.615234375 l 1
 1081.04003906 515.615234375 l 1
 1031.88867188 343.583984375 l 1
 909.0078125 343.583984375 l 1
 909.0078125 -0.48046875 l 1
 736.9765625 -0.48046875 l 1
 736.9765625 343.583984375 l 1
 98 343.583984375 l 1
 98 466.463867188 l 1
736.9765625 515.615234375 m 1
 736.9765625 1179.16796875 l 1
 319.184570312 515.615234375 l 1
 736.9765625 515.615234375 l 1
EndSplineSet
EndChar

StartChar: five
Encoding: 53 53 90
Width: 1212
VWidth: 2457
Flags: HW
HStem: -25.0557 172.032<459.345 776.867> 835.104 172.033<398.559 763.233> 1302.05 172.032<343.185 982.16>
VStem: 933.008 172.032<308.114 663.56>
LayerCount: 2
Fore
SplineSet
982.16015625 1302.04785156 m 1
 343.184570312 1302.04785156 l 1
 294.032226562 884.255859375 l 1
 294.032226562 884.255859375 392.3359375 1007.13671875 588.944335938 1007.13671875 c 0
 785.551757812 1007.13671875 1105.04003906 859.680664062 1105.04003906 491.040039062 c 0
 1105.04003906 122.400390625 859.280273438 -25.0556640625 613.51953125 -25.0556640625 c 0
 409.765625 -25.0556640625 185.69921875 151.557617188 122 343.583984375 c 1
 269.456054688 417.311523438 l 1
 308.403320312 294.432617188 442.084960938 146.9765625 613.51953125 146.9765625 c 0
 810.12890625 146.9765625 933.0078125 294.432617188 933.0078125 491.040039062 c 0
 933.0078125 687.6484375 785.551757812 835.103515625 588.944335938 835.103515625 c 0
 343.184570312 835.103515625 269.456054688 663.071289062 269.456054688 663.071289062 c 1
 122 712.223632812 l 1
 195.728515625 1474.08007812 l 1
 1031.31152344 1474.08007812 l 1
 982.16015625 1302.04785156 l 1
EndSplineSet
EndChar

StartChar: six
Encoding: 54 54 91
Width: 1265
VWidth: 2457
Flags: HW
HStem: -25.0557 147.456<497.051 813.057> 810.528 147.456<485.996 823.474> 1326.62 172.033<489.123 852.082>
VStem: 112 172.032<687.648 1067.95> 972.16 172.032<304.47 491.04>
LayerCount: 2
Fore
SplineSet
677.248046875 1498.65625 m 0
 877.84765625 1498.65625 1039.06054688 1383.52734375 1124.79199219 1228.31933594 c 2
 991.32421875 1130.015625 l 1
 935.493164062 1253.31933594 819.995117188 1326.62304688 677.248046875 1326.62304688 c 0
 316.478515625 1326.62304688 284.032226562 1007.13671875 284.032226562 687.6484375 c 1
 333.184570312 835.103515625 480.640625 957.984375 677.248046875 957.984375 c 0
 972.16015625 957.984375 1144.19238281 697.05078125 1144.19238281 475.8671875 c 0
 1144.19238281 303.833984375 1045.88867188 -25.0556640625 652.671875 -25.0556640625 c 0
 259.456054688 -25.0556640625 112 368.16015625 112 687.6484375 c 0
 112 1007.13671875 185.728515625 1498.65625 677.248046875 1498.65625 c 0
972.16015625 491.040039062 m 2
 972.16015625 491.040039062 972.16015625 810.528320312 652.671875 810.528320312 c 0
 477.5859375 810.528320312 391.0703125 710.021484375 348.630859375 619.169921875 c 0
 306.688476562 529.377929688 314.401367188 424.252929688 356.284179688 334.436523438 c 0
 411.41015625 216.216796875 503.896484375 122.400390625 652.671875 122.400390625 c 0
 947.583984375 122.400390625 972.16015625 441.888671875 972.16015625 491.040039062 c 2
EndSplineSet
EndChar

StartChar: seven
Encoding: 55 55 92
Width: 1242
VWidth: 2457
Flags: HW
HStem: -0.480469 21G<251.456 458.245> 1302.05 172.032<104 915.008>
LayerCount: 2
Fore
SplineSet
251.456054688 -0.48046875 m 1
 915.0078125 1302.04785156 l 1
 104 1302.04785156 l 1
 104 1474.08007812 l 1
 1136.19238281 1474.08007812 l 1
 1136.19238281 1351.20019531 l 1
 448.063476562 -0.48046875 l 1
 251.456054688 -0.48046875 l 1
EndSplineSet
EndChar

StartChar: eight
Encoding: 56 56 93
Width: 1257
VWidth: 2457
Flags: HW
HStem: -25.0557 172.032<445.724 808.468> 712.224 147.457<332.185 922.008> 1326.62 172.033<458.111 796.081>
VStem: 111 172.032<293.556 563.295> 160.152 172.032<971.378 1214.53> 922.008 172.032<971.378 1214.53> 971.16 172.032<295.416 562.482>
LayerCount: 2
Fore
SplineSet
111 417.311523438 m 0xf2
 111 638.49609375 332.184570312 859.680664062 627.095703125 859.680664062 c 0
 922.0078125 859.680664062 1143.19238281 687.6484375 1143.19238281 417.311523438 c 0
 1143.19238281 146.9765625 922.0078125 -25.0556640625 627.095703125 -25.0556640625 c 0
 332.184570312 -25.0556640625 111 196.12890625 111 417.311523438 c 0xf2
627.095703125 712.223632812 m 0
 430.48828125 712.223632812 283.032226562 577.055664062 283.032226562 429.599609375 c 0
 283.032226562 282.14453125 430.48828125 146.9765625 627.095703125 146.9765625 c 0
 823.704101562 146.9765625 971.16015625 282.14453125 971.16015625 429.599609375 c 0
 971.16015625 577.055664062 823.704101562 712.223632812 627.095703125 712.223632812 c 0
160.15234375 1105.44042969 m 0xec
 160.15234375 1277.47167969 332.184570312 1498.65625 627.095703125 1498.65625 c 0
 922.0078125 1498.65625 1094.04003906 1277.47167969 1094.04003906 1105.44042969 c 0
 1094.04003906 933.408203125 922.0078125 712.223632812 627.095703125 712.223632812 c 0
 332.184570312 712.223632812 160.15234375 933.408203125 160.15234375 1105.44042969 c 0xec
627.095703125 859.680664062 m 0
 823.704101562 859.680664062 922.0078125 994.84765625 922.0078125 1093.15234375 c 0
 922.0078125 1191.45605469 823.704101562 1326.62304688 627.095703125 1326.62304688 c 0
 430.48828125 1326.62304688 332.184570312 1191.45605469 332.184570312 1093.15234375 c 0
 332.184570312 994.84765625 430.48828125 859.680664062 627.095703125 859.680664062 c 0
EndSplineSet
EndChar

StartChar: nine
Encoding: 57 57 94
Width: 1257
VWidth: 2457
Flags: HW
HStem: -25.0557 172.032<404.11 767.07> 515.615 147.456<432.718 770.196> 1351.2 147.456<443.134 759.142>
VStem: 112 172.032<982.56 1169.13> 972.16 172.032<405.648 785.952>
LayerCount: 2
Fore
SplineSet
578.944335938 -25.0556640625 m 0
 378.344726562 -25.0556640625 217.12890625 90.072265625 131.3984375 245.280273438 c 2
 264.869140625 343.583984375 l 1
 320.697265625 220.28125 436.19921875 146.9765625 578.944335938 146.9765625 c 0
 939.71484375 146.9765625 972.16015625 466.463867188 972.16015625 785.952148438 c 1
 923.0078125 638.49609375 775.551757812 515.615234375 578.944335938 515.615234375 c 0
 284.032226562 515.615234375 112 776.548828125 112 997.733398438 c 0
 112 1169.765625 210.303710938 1498.65625 603.51953125 1498.65625 c 0
 996.736328125 1498.65625 1144.19238281 1105.44042969 1144.19238281 785.952148438 c 0
 1144.19238281 466.463867188 1070.46386719 -25.0556640625 578.944335938 -25.0556640625 c 0
284.032226562 982.559570312 m 2
 284.032226562 982.559570312 284.032226562 663.071289062 603.51953125 663.071289062 c 0
 778.604492188 663.071289062 865.122070312 763.578125 907.55859375 854.430664062 c 0
 949.505859375 944.221679688 941.7890625 1049.34765625 899.90625 1139.16308594 c 0
 844.783203125 1257.3828125 752.298828125 1351.20019531 603.51953125 1351.20019531 c 0
 308.607421875 1351.20019531 284.032226562 1031.71191406 284.032226562 982.559570312 c 2
EndSplineSet
EndChar

StartChar: asciitilde
Encoding: 126 126 95
Width: 1271
VWidth: 2457
Flags: HW
HStem: 736.8 221.185<711.966 975.686> 884.256 221.185<310.45 582.225>
LayerCount: 2
Fore
SplineSet
1138.61523438 1080.86328125 m 5x80
 1138.61523438 859.680664062 l 5
 1138.61523438 859.680664062 961.3203125 736.799804688 819.12890625 736.799804688 c 4x80
 676.936523438 736.799804688 569.856445312 884.255859375 475.063476562 884.255859375 c 4
 380.270507812 884.255859375 131 761.376953125 131 761.376953125 c 5
 131 982.559570312 l 5
 131 982.559570312 332.874023438 1105.44042969 475.063476562 1105.44042969 c 4x40
 617.25390625 1105.44042969 724.333007812 957.984375 819.12890625 957.984375 c 4
 913.922851562 957.984375 1138.61523438 1080.86328125 1138.61523438 1080.86328125 c 5x80
EndSplineSet
EndChar

StartChar: grave
Encoding: 96 96 96
Width: 580
VWidth: 2457
Flags: HW
HStem: 1228.32 344.065
VStem: 111 344.063
LayerCount: 2
Fore
SplineSet
307.607421875 1228.31933594 m 5
 111 1572.38476562 l 5
 307.607421875 1572.38476562 l 5
 455.063476562 1228.31933594 l 5
 307.607421875 1228.31933594 l 5
EndSplineSet
EndChar

StartChar: at
Encoding: 64 64 97
Width: 1932
VWidth: 2457
Flags: HW
HStem: -393.696 147.456<715.538 1286> -25.0557 147.456<802.976 1082.36 1433.72 1578.28> 908.832 147.456<802.976 1082.36> 1011.71 20G<1281.65 1409.53> 1302.05 147.456<738.847 1240.67>
VStem: 107 147.455<239.791 800.426> 475.64 172.031<303.579 727.653> 1237.5 49.1514<245.28 785.952> 1286.65 122.881<974.367 1031.71> 1679.86 147.456<278.027 836.807>
LayerCount: 2
Fore
SplineSet
1409.52832031 1031.71191406 m 1xdec0
 1409.52832031 245.280273438 l 2xdec0
 1409.52832031 185.029296875 1446.39160156 122.400390625 1507.83203125 122.400390625 c 0
 1569.27148438 122.400390625 1679.86328125 245.280273438 1679.86328125 589.34375 c 0
 1679.86328125 920.72265625 1452.53613281 1302.04785156 991.736328125 1302.04785156 c 0
 530.935546875 1302.04785156 254.455078125 931.8203125 254.455078125 540.192382812 c 0
 254.455078125 148.563476562 451.063476562 -246.240234375 991.736328125 -246.240234375 c 0
 1237.49609375 -246.240234375 1434.10351562 -147.936523438 1434.10351562 -147.936523438 c 1
 1483.25585938 -270.815429688 l 1
 1483.25585938 -270.815429688 1298.93554688 -393.696289062 991.736328125 -393.696289062 c 0
 315.895507812 -393.696289062 107 88.3134765625 107 540.192382812 c 0
 107 893.766601562 346.615234375 1449.50390625 991.736328125 1449.50390625 c 0
 1636.85546875 1449.50390625 1827.31933594 890.596679688 1827.31933594 589.34375 c 0
 1827.31933594 189.787109375 1704.43945312 -25.0556640625 1507.83203125 -25.0556640625 c 0
 1262.07128906 -25.0556640625 1237.49609375 153.31640625 1237.49609375 245.280273438 c 2
 1237.49609375 835.103515625 l 1xdf40
 1286.64746094 1031.71191406 l 1
 1409.52832031 1031.71191406 l 1xdec0
475.639648438 515.615234375 m 0
 475.639648438 785.952148438 647.670898438 1056.28808594 942.583984375 1056.28808594 c 0
 1237.49609375 1056.28808594 1286.64746094 785.952148438 1286.64746094 515.615234375 c 0xef40
 1286.64746094 245.280273438 1237.49609375 -25.0556640625 942.583984375 -25.0556640625 c 0
 647.670898438 -25.0556640625 475.639648438 245.280273438 475.639648438 515.615234375 c 0
942.583984375 908.83203125 m 0
 770.551757812 908.83203125 647.670898438 736.799804688 647.670898438 515.615234375 c 0
 647.670898438 294.432617188 770.551757812 122.400390625 942.583984375 122.400390625 c 0
 1114.61523438 122.400390625 1237.49609375 294.432617188 1237.49609375 515.615234375 c 0
 1237.49609375 736.799804688 1114.61523438 908.83203125 942.583984375 908.83203125 c 0
EndSplineSet
EndChar

StartChar: dieresis
Encoding: 259 168 99
Width: 802
VWidth: 2457
Flags: HW
LayerCount: 2
Fore
SplineSet
129 1375.72753906 m 5
 301.032226562 1375.72753906 l 5
 301.032226562 1379.46679688 301.032226562 1173.66796875 301.032226562 1179.28125 c 5
 129 1179.28125 l 5
 129 1173.66796875 129 1379.46679688 129 1375.72753906 c 5
497.640625 1375.72753906 m 5
 669.671875 1375.72753906 l 5
 669.671875 1379.46679688 669.671875 1173.66796875 669.671875 1179.28125 c 5
 497.640625 1179.28125 l 5
 497.640625 1173.66796875 497.640625 1379.46679688 497.640625 1375.72753906 c 5
EndSplineSet
EndChar

StartChar: exclamdown
Encoding: 260 161 100
Width: 461
VWidth: 2457
Flags: HW
LayerCount: 2
Fore
SplineSet
317.032226562 1277.36816406 m 5
 145 1277.36816406 l 5
 145 1273.62890625 145 1479.42773438 145 1473.81445312 c 5
 317.032226562 1473.81445312 l 5
 317.032226562 1479.42773438 317.032226562 1273.62890625 317.032226562 1277.36816406 c 5
317.032226562 -0.3671875 m 5
 145 -0.3671875 l 5
 145 -20.0126953125 145 1060.43652344 145 1030.96972656 c 5
 317.032226562 1030.96972656 l 5
 317.032226562 1060.43652344 317.032226562 -20.0126953125 317.032226562 -0.3671875 c 5
EndSplineSet
EndChar

StartChar: sterling
Encoding: 261 163 101
Width: 1198
VWidth: 2457
Flags: HW
LayerCount: 2
Fore
SplineSet
256.456054688 417.311523438 m 2
 256.456054688 540.192382812 l 1
 109 540.192382812 l 1
 109 712.223632812 l 1
 256.456054688 712.223632812 l 1
 256.456054688 982.559570312 l 2
 256.456054688 1277.47167969 453.063476562 1498.65625 674.248046875 1498.65625 c 0
 839.698242188 1498.65625 1028.33398438 1333.9921875 1092.04003906 1130.015625 c 1
 966.466796875 1031.71191406 l 1
 941.890625 1154.59179688 838.3515625 1326.62304688 674.248046875 1326.62304688 c 0
 489.928710938 1326.62304688 428.48828125 1130.015625 428.48828125 982.559570312 c 2
 428.48828125 712.223632812 l 1
 797.12890625 712.223632812 l 1
 797.12890625 540.192382812 l 1
 428.48828125 540.192382812 l 1
 428.48828125 417.311523438 l 2
 428.48828125 324.901367188 400.689453125 218.590820312 365.998046875 171.551757812 c 1
 1042.88867188 171.551757812 l 1
 1042.88867188 -0.48046875 l 1
 109 -0.48046875 l 1
 109 171.551757812 l 1
 158.15234375 171.551757812 l 2
 207.303710938 171.551757812 256.456054688 294.432617188 256.456054688 417.311523438 c 2
EndSplineSet
EndChar

StartChar: section
Encoding: 167 167 102
Width: 1158
VWidth: 2457
Flags: HW
LayerCount: 2
Fore
SplineSet
1045.88867188 564.767578125 m 0
 1045.88867188 511.728515625 1033.69335938 364.920898438 868.115234375 300.655273438 c 1
 940.909179688 249.075195312 996.736328125 176.45703125 996.736328125 73.248046875 c 0
 996.736328125 -74.1875 927.102539062 -270.815429688 578.944335938 -270.815429688 c 0
 313.076171875 -270.815429688 161.15234375 -98.7841796875 161.15234375 -98.7841796875 c 1
 259.456054688 48.671875 l 1
 259.456054688 48.671875 389.038085938 -123.359375 578.944335938 -123.359375 c 0
 753.026367188 -123.359375 824.704101562 -29.8486328125 824.704101562 73.248046875 c 0
 824.704101562 176.34375 671.083984375 253.537109375 578.944335938 269.85546875 c 0
 575.357421875 270.490234375 571.491210938 271.159179688 567.372070312 271.87109375 c 0
 318.239257812 338.594726562 112 431.875976562 112 663.071289062 c 0
 112 716.111328125 124.197265625 862.919921875 289.771484375 927.185546875 c 1
 216.978515625 978.765625 161.15234375 1051.3828125 161.15234375 1154.59179688 c 0
 161.15234375 1302.02832031 230.783203125 1498.65625 578.944335938 1498.65625 c 0
 844.8125 1498.65625 996.736328125 1326.62304688 996.736328125 1326.62304688 c 1
 898.432617188 1179.16796875 l 1
 898.432617188 1179.16796875 768.84765625 1351.20019531 578.944335938 1351.20019531 c 0
 404.86328125 1351.20019531 333.184570312 1257.6875 333.184570312 1154.59179688 c 0
 333.184570312 1051.49511719 486.805664062 974.302734375 578.944335938 957.984375 c 0
 582.53125 957.350585938 586.397460938 956.681640625 590.516601562 955.96875 c 0
 839.646484375 889.244140625 1045.88867188 795.96484375 1045.88867188 564.767578125 c 0
643.795898438 400.103515625 m 0
 695.05078125 385.465820312 752.55859375 380.098632812 792.80859375 415.041015625 c 0
 842.919921875 458.541015625 873.85546875 522.72265625 873.85546875 564.767578125 c 0
 873.85546875 633.497070312 843.155273438 743.327148438 578.944335938 810.528320312 c 0
 577.684570312 810.84765625 576.40234375 811.171875 575.096679688 811.505859375 c 0
 558.060546875 815.8359375 537.23828125 821.125 514.091796875 827.736328125 c 0
 462.837890625 842.373046875 405.331054688 847.741210938 365.079101562 812.798828125 c 0
 314.969726562 769.299804688 284.032226562 705.1171875 284.032226562 663.071289062 c 0
 284.032226562 594.341796875 314.73046875 484.512695312 578.944335938 417.311523438 c 0
 580.203125 416.993164062 581.486328125 416.66796875 582.790039062 416.333984375 c 0
 599.827148438 412.002929688 620.650390625 406.71484375 643.795898438 400.103515625 c 0
EndSplineSet
EndChar

StartChar: copyright
Encoding: 169 169 103
Width: 1736
VWidth: 2457
Flags: HW
LayerCount: 2
Fore
SplineSet
278.032226562 736.799804688 m 0
 278.032226562 1062.59667969 542.059570312 1326.62304688 867.85546875 1326.62304688 c 0
 1193.65234375 1326.62304688 1457.68066406 1062.59667969 1457.68066406 736.799804688 c 0
 1457.68066406 411.00390625 1193.65234375 146.9765625 867.85546875 146.9765625 c 0
 542.059570312 146.9765625 278.032226562 411.00390625 278.032226562 736.799804688 c 0
106 736.799804688 m 0
 106 316.100585938 447.15625 -25.0556640625 867.85546875 -25.0556640625 c 0
 1288.55566406 -25.0556640625 1629.71191406 316.100585938 1629.71191406 736.799804688 c 0
 1629.71191406 1157.5 1288.55566406 1498.65625 867.85546875 1498.65625 c 0
 447.15625 1498.65625 106 1157.5 106 736.799804688 c 0
903.186523438 1179.16796875 m 0
 1011.23242188 1179.16796875 1098.98339844 1118.17480469 1162.76757812 1052.99511719 c 2
 1089.04003906 933.408203125 l 1
 1046.3125 992.243164062 977.288085938 1031.71191406 903.186523438 1031.71191406 c 0
 763.408203125 1031.71191406 663.5703125 917.767578125 663.5703125 736.799804688 c 0
 663.5703125 555.83203125 763.408203125 441.888671875 903.186523438 441.888671875 c 0
 977.288085938 441.888671875 1046.3125 481.357421875 1089.04003906 540.192382812 c 1
 1162.76757812 420.604492188 l 2
 1098.98339844 355.424804688 1011.23242188 294.432617188 903.186523438 294.432617188 c 0
 663.5703125 294.432617188 499.215820312 466.463867188 499.215820312 736.799804688 c 0
 499.215820312 1007.13671875 663.5703125 1179.16796875 903.186523438 1179.16796875 c 0
EndSplineSet
EndChar

StartChar: registered
Encoding: 262 174 104
Width: 1736
VWidth: 2457
Flags: HW
LayerCount: 2
Fore
SplineSet
278.032226562 736.799804688 m 0
 278.032226562 1062.59667969 542.059570312 1326.62304688 867.85546875 1326.62304688 c 0
 1193.65234375 1326.62304688 1457.68066406 1062.59667969 1457.68066406 736.799804688 c 0
 1457.68066406 411.00390625 1193.65234375 146.9765625 867.85546875 146.9765625 c 0
 542.059570312 146.9765625 278.032226562 411.00390625 278.032226562 736.799804688 c 0
106 736.799804688 m 0
 106 316.100585938 447.15625 -25.0556640625 867.85546875 -25.0556640625 c 0
 1288.55566406 -25.0556640625 1629.71191406 316.100585938 1629.71191406 736.799804688 c 0
 1629.71191406 1157.5 1288.55566406 1498.65625 867.85546875 1498.65625 c 0
 447.15625 1498.65625 106 1157.5 106 736.799804688 c 0
597.51953125 1154.59179688 m 1
 698.22265625 1154.59179688 l 1
 914.009765625 1154.59179688 l 2
 1057.86816406 1154.59179688 1187.34375 1035.80664062 1187.34375 896.543945312 c 0
 1187.34375 791.142578125 1096.69824219 701.6953125 1002.71875 664.428710938 c 1
 1236.49609375 319.0078125 l 1
 1064.46386719 319.0078125 l 1
 839.3671875 645.868164062 l 1
 769.551757812 645.868164062 l 1
 769.551757812 319.0078125 l 1
 597.51953125 319.0078125 l 1
 597.51953125 1154.59179688 l 1
769.551757812 785.952148438 m 1
 864.858398438 785.952148438 l 1
 865.796875 785.952148438 l 2
 909.55078125 785.947265625 1015.31152344 785.931640625 1015.31152344 896.543945312 c 0
 1015.31152344 1007.15039062 923.736328125 1007.140625 866.111328125 1007.13671875 c 2
 864.858398438 1007.13671875 l 1
 769.551757812 1007.13671875 l 1
 769.551757812 785.952148438 l 1
EndSplineSet
EndChar

StartChar: brokenbar
Encoding: 263 166 105
Width: 471
VWidth: 2457
Flags: HW
LayerCount: 2
Fore
SplineSet
321.032226562 1916.44824219 m 1
 321.032226562 884.255859375 l 1
 149 884.255859375 l 1
 149 1916.44824219 l 1
 321.032226562 1916.44824219 l 1
149 -442.84765625 m 1
 149 589.34375 l 1
 321.032226562 589.34375 l 1
 321.032226562 -442.84765625 l 1
 149 -442.84765625 l 1
EndSplineSet
EndChar

StartChar: acute
Encoding: 264 180 106
Width: 572
VWidth: 2457
Flags: HW
LayerCount: 2
Fore
SplineSet
268.456054688 1228.31933594 m 5
 121 1228.31933594 l 5
 268.456054688 1572.38476562 l 5
 465.063476562 1572.38476562 l 5
 268.456054688 1228.31933594 l 5
EndSplineSet
EndChar

StartChar: questiondown
Encoding: 265 191 107
Width: 1028
VWidth: 2457
Flags: HW
LayerCount: 2
Fore
SplineSet
595.51953125 1302.09765625 m 1
 423.48828125 1302.09765625 l 1
 423.48828125 1298.35644531 423.48828125 1504.15625 423.48828125 1498.54296875 c 1
 595.51953125 1498.54296875 l 1
 595.51953125 1504.15625 595.51953125 1298.35644531 595.51953125 1302.09765625 c 1
420.79296875 1130.015625 m 1
 592.82421875 1130.015625 l 1
 592.82421875 908.83203125 l 2
 592.82421875 798.240234375 509.880859375 742.944335938 426.9375 687.6484375 c 0
 343.993164062 632.3515625 276.032226562 527.904296875 276.032226562 417.311523438 c 0
 276.032226562 269.85546875 337.471679688 171.551757812 521.791992188 171.551757812 c 0
 685.895507812 171.551757812 789.434570312 294.432617188 814.010742188 417.311523438 c 1
 939.583984375 319.0078125 l 1
 875.877929688 115.032226562 684.548828125 -0.48046875 519.096679688 -0.48046875 c 0
 297.912109375 -0.48046875 104 122.400390625 104 417.311523438 c 0
 104 600.216796875 204.34765625 733.014648438 301.286132812 796.553710938 c 0
 309.666015625 802.043945312 318.061523438 807.38671875 326.30078125 812.631835938 c 0
 376.430664062 844.53125 420.79296875 872.759765625 420.79296875 908.83203125 c 2
 420.79296875 1130.015625 l 1
EndSplineSet
EndChar

StartChar: NameMe.260
Encoding: 266 768 109
Width: 580
VWidth: 2457
Flags: HW
LayerCount: 2
Fore
SplineSet
307.607421875 1228.31933594 m 5
 111 1572.38476562 l 5
 307.607421875 1572.38476562 l 5
 455.063476562 1228.31933594 l 5
 307.607421875 1228.31933594 l 5
EndSplineSet
EndChar

StartChar: NameMe.261
Encoding: 267 769 110
Width: 572
VWidth: 2457
Flags: HW
LayerCount: 2
Fore
SplineSet
268.456054688 1228.31933594 m 5
 121 1228.31933594 l 5
 268.456054688 1572.38476562 l 5
 465.063476562 1572.38476562 l 5
 268.456054688 1228.31933594 l 5
EndSplineSet
EndChar

StartChar: NameMe.262
Encoding: 269 770 114
Width: 855
VWidth: 2457
Flags: HW
LayerCount: 2
Fore
SplineSet
117 1179.16796875 m 5
 338.184570312 1670.68847656 l 5
 510.215820312 1670.68847656 l 5
 731.400390625 1179.16796875 l 5
 608.51953125 1130.015625 l 5
 424.200195312 1498.65625 l 5
 239.880859375 1130.015625 l 5
 117 1179.16796875 l 5
EndSplineSet
EndChar

StartChar: NameMe.263
Encoding: 270 771 115
Width: 844
VWidth: 2948
Flags: HW
LayerCount: 2
Fore
SplineSet
717.82421875 1523.23242188 m 1
 717.82421875 1351.20019531 l 1
 717.82421875 1351.20019531 663.407226562 1228.31933594 560.365234375 1228.31933594 c 0
 447.48828125 1228.31933594 345.672851562 1375.77636719 272.2578125 1375.77636719 c 0
 205.239257812 1375.77636719 128 1252.89648438 128 1252.89648438 c 1
 128 1424.92871094 l 1
 128 1424.92871094 182.41796875 1547.80761719 285.458984375 1547.80761719 c 0
 398.3359375 1547.80761719 500.149414062 1400.3515625 573.56640625 1400.3515625 c 0
 640.5859375 1400.3515625 717.82421875 1523.23242188 717.82421875 1523.23242188 c 1
EndSplineSet
EndChar

StartChar: NameMe.264
Encoding: 271 776 116
Width: 802
VWidth: 2457
Flags: HW
LayerCount: 2
Fore
SplineSet
129 1375.72753906 m 5
 301.032226562 1375.72753906 l 5
 301.032226562 1379.46679688 301.032226562 1173.66796875 301.032226562 1179.28125 c 5
 129 1179.28125 l 5
 129 1173.66796875 129 1379.46679688 129 1375.72753906 c 5
497.640625 1375.72753906 m 5
 669.671875 1375.72753906 l 5
 669.671875 1379.46679688 669.671875 1173.66796875 669.671875 1179.28125 c 5
 497.640625 1179.28125 l 5
 497.640625 1173.66796875 497.640625 1379.46679688 497.640625 1375.72753906 c 5
EndSplineSet
EndChar

StartChar: NameMe.265
Encoding: 273 778 118
Width: 790
VWidth: 2457
Flags: HW
LayerCount: 2
Fore
SplineSet
125 1449.50390625 m 0
 125 1596.95996094 247.880859375 1695.26367188 395.3359375 1695.26367188 c 0
 542.791992188 1695.26367188 665.671875 1596.95996094 665.671875 1449.50390625 c 0
 665.671875 1302.04785156 542.791992188 1203.74414062 395.3359375 1203.74414062 c 0
 247.880859375 1203.74414062 125 1302.04785156 125 1449.50390625 c 0
395.3359375 1547.80761719 m 0
 321.607421875 1547.80761719 297.032226562 1498.65625 297.032226562 1449.50390625 c 0
 297.032226562 1400.3515625 321.607421875 1351.20019531 395.3359375 1351.20019531 c 0
 469.063476562 1351.20019531 493.640625 1400.3515625 493.640625 1449.50390625 c 0
 493.640625 1498.65625 469.063476562 1547.80761719 395.3359375 1547.80761719 c 0
EndSplineSet
EndChar

StartChar: degree
Encoding: 176 176 163
Width: 894
VWidth: 2457
Flags: HW
LayerCount: 2
Fore
SplineSet
127 1203.74414062 m 0
 127 1424.92871094 249.880859375 1547.80761719 446.48828125 1547.80761719 c 0
 643.095703125 1547.80761719 765.9765625 1424.92871094 765.9765625 1203.74414062 c 0
 765.9765625 982.559570312 643.095703125 859.680664062 446.48828125 859.680664062 c 0
 249.880859375 859.680664062 127 982.559570312 127 1203.74414062 c 0
446.48828125 1400.3515625 m 0
 372.759765625 1400.3515625 299.032226562 1326.62304688 299.032226562 1203.74414062 c 0
 299.032226562 1080.86328125 372.759765625 1007.13671875 446.48828125 1007.13671875 c 0
 520.215820312 1007.13671875 593.944335938 1080.86328125 593.944335938 1203.74414062 c 0
 593.944335938 1326.62304688 520.215820312 1400.3515625 446.48828125 1400.3515625 c 0
EndSplineSet
EndChar

StartChar: NameMe.281
Encoding: 281 774 165
Width: 785
VWidth: 2457
Flags: HW
LayerCount: 2
Fore
SplineSet
392.3359375 1203.74414062 m 0
 244.880859375 1203.74414062 122 1302.04785156 122 1449.50390625 c 1
 294.032226562 1449.50390625 l 1
 294.032226562 1400.3515625 318.607421875 1351.20019531 392.3359375 1351.20019531 c 0
 466.063476562 1351.20019531 490.640625 1400.3515625 490.640625 1449.50390625 c 1
 662.671875 1449.50390625 l 1
 662.671875 1302.04785156 539.791992188 1203.74414062 392.3359375 1203.74414062 c 0
EndSplineSet
EndChar

StartChar: NameMe.282
Encoding: 282 780 167
Width: 831
VWidth: 2457
Flags: HW
LayerCount: 2
Fore
SplineSet
725.400390625 1621.53613281 m 5
 504.215820312 1130.015625 l 5
 332.184570312 1130.015625 l 5
 111 1621.53613281 l 5
 233.880859375 1670.68847656 l 5
 418.200195312 1302.04785156 l 5
 602.51953125 1670.68847656 l 5
 725.400390625 1621.53613281 l 5
EndSplineSet
EndChar

StartChar: NameMe.283
Encoding: 283 779 189
Width: 916
VWidth: 2457
Flags: HW
LayerCount: 2
Fore
SplineSet
268.456054688 1228.31933594 m 1
 121 1228.31933594 l 1
 268.456054688 1572.38476562 l 1
 465.063476562 1572.38476562 l 1
 268.456054688 1228.31933594 l 1
612.51953125 1228.31933594 m 1
 465.063476562 1228.31933594 l 1
 612.51953125 1572.38476562 l 1
 809.12890625 1572.38476562 l 1
 612.51953125 1228.31933594 l 1
EndSplineSet
EndChar

StartChar: NameMe.284
Encoding: 284 775 190
Width: 433
VWidth: 2457
Flags: HW
LayerCount: 2
Fore
SplineSet
129 1375.72753906 m 1
 301.032226562 1375.72753906 l 1
 301.032226562 1379.46679688 301.032226562 1173.66796875 301.032226562 1179.28125 c 1
 129 1179.28125 l 1
 129 1173.66796875 129 1379.46679688 129 1375.72753906 c 1
EndSplineSet
EndChar

StartChar: NameMe.285
Encoding: 285 806 191
Width: 461
VWidth: 2457
Flags: HW
LayerCount: 2
Fore
SplineSet
143 -147.985351562 m 1
 315.032226562 -147.985351562 l 1
 315.032226562 -144.245117188 315.032226562 -350.043945312 315.032226562 -344.430664062 c 1
 143 -344.430664062 l 1
 143 -350.043945312 143 -144.245117188 143 -147.985351562 c 1
EndSplineSet
EndChar

StartChar: NameMe.286
Encoding: 286 808 199
Width: 538
VWidth: 2457
Flags: HW
LayerCount: 2
Fore
SplineSet
413.912109375 -257.815429688 m 1
 413.912109375 -405.271484375 l 2
 241.880859375 -429.84765625 119 -356.119140625 119 -233.240234375 c 0
 119 -110.359375 192.728515625 -49.6328125 266.456054688 -0.48046875 c 2
 389.3359375 -0.48046875 l 1
 192.728515625 -147.936523438 192.728515625 -331.543945312 413.912109375 -257.815429688 c 1
EndSplineSet
EndChar

StartChar: NameMe.287
Encoding: 287 807 200
Width: 495
Flags: HW
LayerCount: 2
Fore
SplineSet
125 -225.6796875 m 1
 309.3203125 -287.120117188 309.3203125 -123.280273438 145.479492188 -0.400390625 c 1
 247.879882812 -0.400390625 l 2
 309.3203125 -41.3603515625 370.759765625 -102.799804688 370.759765625 -205.200195312 c 0
 370.759765625 -307.599609375 268.360351562 -369.040039062 125 -348.559570312 c 2
 125 -225.6796875 l 1
EndSplineSet
EndChar

StartChar: Aogonek
Encoding: 161 260 201
Width: 1571
Flags: HW
LayerCount: 2
Fore
SplineSet
1424.296875 -258.165039062 m 1
 1424.296875 -405.62109375 l 2
 1252.265625 -430.197265625 1129.38476562 -356.46875 1129.38476562 -233.58984375 c 0
 1129.38476562 -110.708984375 1177.11328125 -49.982421875 1250.83984375 -0.830078125 c 2
 1422.72070312 -0.830078125 l 1
 1226.11328125 -148.286132812 1203.11328125 -331.893554688 1424.296875 -258.165039062 c 1
EndSplineSet
Refer: 0 65 N 1 0 0 1 0 0 2
EndChar

